# Blender v2.93.6 OBJ File: 'handmade_19.blend'
# www.blender.org
mtllib handmade_19.mtl
o House_Cube.002
v 3.000000 -2.000000 0.000000
v 3.000000 -2.000000 4.000000
v -3.000000 -2.000000 0.000000
v -3.000000 -2.000000 4.000000
v -3.000000 2.000000 4.000000
v -3.000000 2.000000 0.000000
v 3.000000 2.000000 0.000000
v 3.000000 2.000000 4.000000
v -2.000000 -2.000000 3.000000
v -2.000000 -2.000000 1.000000
v 2.000000 -2.000000 1.000000
v 2.000000 -2.000000 3.000000
v 0.000000 -2.000000 3.000000
v 0.000000 -2.000000 1.000000
v -2.000000 -2.000000 2.000000
v 1.931852 -2.517638 1.000000
v 1.931852 -2.517638 3.000000
v 1.732051 -3.000000 1.000000
v 1.732051 -3.000000 3.000000
v 1.414214 -3.414214 1.000000
v 1.414214 -3.414214 3.000000
v 1.000000 -3.732051 1.000000
v 1.000000 -3.732051 3.000000
v 0.517638 -3.931852 1.000000
v 0.517638 -3.931852 3.000000
v -0.000000 -4.000000 1.000000
v -0.000000 -4.000000 3.000000
v -0.517638 -3.931852 1.000000
v -0.517638 -3.931852 3.000000
v -1.000000 -3.732051 1.000000
v -1.000000 -3.732051 3.000000
v -1.414213 -3.414214 1.000000
v -1.414213 -3.414214 3.000000
v -1.732051 -3.000000 1.000000
v -1.732051 -3.000000 3.000000
v -1.931852 -2.517638 1.000000
v -1.931852 -2.517638 3.000000
vt 0.875000 0.500000
vt 0.625000 0.750000
vt 0.625000 0.500000
vt 0.875000 0.750000
vt 0.625000 0.250000
vt 0.573403 0.123983
vt 0.625000 0.000000
vt 0.375000 1.000000
vt 0.375000 0.750000
vt 0.375000 0.500000
vt 0.375000 0.250000
vt 0.427857 0.207770
vt 0.375000 0.000000
vt 0.432343 0.038046
vt 0.430023 0.125830
vt 0.497862 0.207253
vt 0.569613 0.206723
vt 0.577226 0.040497
vt 0.625000 1.000000
vt 0.000000 0.000000
vt 0.750000 1.000000
vt 0.708333 0.500000
vt 0.750000 0.500000
vt 0.708333 1.000000
vt 0.666667 0.500000
vt 0.666667 1.000000
vt 0.625000 0.500000
vt 0.625000 1.000000
vt 0.583333 0.500000
vt 0.583333 1.000000
vt 0.541666 0.500000
vt 0.541666 1.000000
vt 0.500000 0.500000
vt 0.500000 1.000000
vt 0.458333 0.500000
vt 0.458333 1.000000
vt 0.416666 0.500000
vt 0.416666 1.000000
vt 0.375000 0.500000
vt 0.375000 1.000000
vt 0.333333 0.500000
vt 0.333333 1.000000
vt 0.291667 0.500000
vt 0.291667 1.000000
vt 0.250000 0.500000
vt 0.630000 0.042154
vt 0.542154 0.130000
vt 0.990000 0.250000
vt 0.370000 0.042154
vt 0.457846 0.130000
vt 0.010000 0.250000
vt 0.250000 1.000000
vt 0.518178 0.187883
vt 0.510000 0.250000
vt 0.981822 0.187883
vt 0.957846 0.130000
vt 0.919706 0.080294
vt 0.870000 0.042154
vt 0.812117 0.018178
vt 0.750000 0.010000
vt 0.687883 0.018178
vt 0.580294 0.080294
vt 0.481822 0.187883
vt 0.490000 0.250000
vt 0.018178 0.187883
vt 0.042154 0.130000
vt 0.080294 0.080294
vt 0.130000 0.042154
vt 0.187883 0.018178
vt 0.250000 0.010000
vt 0.312117 0.018178
vt 0.419706 0.080294
vn 0.0000 0.0000 1.0000
vn 0.0000 -1.0000 0.0000
vn 1.0000 0.0000 0.0000
vn 0.0000 1.0000 0.0000
vn -1.0000 0.0000 0.0000
vn 0.9914 -0.1305 0.0000
vn 0.9239 -0.3827 0.0000
vn 0.7934 -0.6088 0.0000
vn 0.6088 -0.7934 0.0000
vn 0.3827 -0.9239 0.0000
vn 0.1305 -0.9914 0.0000
vn -0.1305 -0.9914 0.0000
vn -0.3827 -0.9239 0.0000
vn -0.6088 -0.7934 0.0000
vn -0.7934 -0.6088 0.0000
vn -0.9239 -0.3827 0.0000
vn -0.9914 -0.1305 0.0000
vn 0.0000 0.0000 -1.0000
usemtl Roof
s off
f 4/1/1 8/2/1 5/3/1
f 4/1/1 2/4/1 8/2/1
usemtl Wall
f 4/5/2 13/6/2 2/7/2
f 8/2/3 1/8/3 7/9/3
f 7/9/4 5/3/4 8/2/4
f 4/5/5 6/10/5 3/11/5
f 10/12/2 1/13/2 11/14/2
f 10/12/1 11/14/1 14/15/1
f 11/14/2 1/13/2 2/7/2
f 4/5/2 3/11/2 15/16/2
f 3/11/2 10/12/2 15/16/2
f 15/16/2 9/17/2 4/5/2
f 12/18/2 11/14/2 2/7/2
f 9/17/2 13/6/2 4/5/2
f 13/6/2 12/18/2 2/7/2
f 8/2/3 2/19/3 1/8/3
f 7/9/4 6/20/4 5/3/4
f 4/5/5 5/3/5 6/10/5
f 10/12/2 3/11/2 1/13/2
usemtl Convex
f 12/21/6 16/22/6 11/23/6
f 17/24/7 18/25/7 16/22/7
f 19/26/8 20/27/8 18/25/8
f 21/28/9 22/29/9 20/27/9
f 23/30/10 24/31/10 22/29/10
f 25/32/11 26/33/11 24/31/11
f 27/34/12 28/35/12 26/33/12
f 29/36/13 30/37/13 28/35/13
f 31/38/14 32/39/14 30/37/14
f 33/40/15 34/41/15 32/39/15
f 35/42/16 36/43/16 34/41/16
f 37/44/17 10/45/17 36/43/17
f 30/46/18 34/47/18 11/48/18
f 23/49/1 19/50/1 9/51/1
f 12/21/6 17/24/6 16/22/6
f 17/24/7 19/26/7 18/25/7
f 19/26/8 21/28/8 20/27/8
f 21/28/9 23/30/9 22/29/9
f 23/30/10 25/32/10 24/31/10
f 25/32/11 27/34/11 26/33/11
f 27/34/12 29/36/12 28/35/12
f 29/36/13 31/38/13 30/37/13
f 31/38/14 33/40/14 32/39/14
f 33/40/15 35/42/15 34/41/15
f 35/42/16 37/44/16 36/43/16
f 37/44/17 9/52/17 10/45/17
f 36/53/18 10/54/18 34/47/18
f 10/54/18 11/48/18 34/47/18
f 11/48/18 16/55/18 18/56/18
f 18/56/18 20/57/18 11/48/18
f 20/57/18 22/58/18 11/48/18
f 22/58/18 24/59/18 26/60/18
f 26/60/18 28/61/18 30/46/18
f 30/46/18 32/62/18 34/47/18
f 22/58/18 26/60/18 11/48/18
f 26/60/18 30/46/18 11/48/18
f 17/63/1 12/64/1 19/50/1
f 12/64/1 9/51/1 19/50/1
f 9/51/1 37/65/1 35/66/1
f 35/66/1 33/67/1 31/68/1
f 31/68/1 29/69/1 27/70/1
f 27/70/1 25/71/1 23/49/1
f 23/49/1 21/72/1 19/50/1
f 9/51/1 35/66/1 31/68/1
f 31/68/1 27/70/1 9/51/1
f 27/70/1 23/49/1 9/51/1
