# Blender v2.93.6 OBJ File: 'handmade_24.blend'
# www.blender.org
mtllib handmade_24.mtl
o House_Cube.002
v -7.000000 -3.000000 0.000000
v -7.000000 -3.000000 6.000000
v -7.000000 3.000000 0.000000
v -7.000000 3.000000 6.000000
v 7.000000 -3.000000 0.000000
v 7.000000 -3.000000 6.000000
v 7.000000 3.000000 0.000000
v 7.000000 3.000000 6.000000
v -7.000000 3.000000 1.000000
v 7.000000 3.000000 1.000000
v 7.000000 3.000000 4.000000
v -7.000000 3.000000 4.000000
v 6.000000 3.000000 1.000000
v 6.000000 3.000000 4.000000
v 4.000000 3.000000 1.000000
v 4.000000 3.000000 4.000000
v 3.000000 3.000000 1.000000
v 3.000000 3.000000 4.000000
v 1.000000 3.000000 1.000000
v 1.000000 3.000000 4.000000
v -1.000000 3.000000 1.000000
v -1.000000 3.000000 4.000000
v -3.000000 3.000000 1.000000
v -3.000000 3.000000 4.000000
v -4.000000 3.000000 1.000000
v -4.000000 3.000000 4.000000
v -6.000000 3.000000 1.000000
v -6.000000 3.000000 4.000000
v 6.000000 4.000000 1.000000
v 6.000000 4.000000 4.000000
v 4.000000 4.000000 1.000000
v 4.000000 4.000000 4.000000
v 3.000000 5.000000 1.000000
v 3.000000 5.000000 4.000000
v 1.000000 5.000000 1.000000
v 1.000000 5.000000 4.000000
v -1.000000 3.500000 1.000000
v -1.000000 3.500000 4.000000
v -3.000000 3.500000 1.000000
v -3.000000 3.500000 4.000000
v -4.000000 4.500000 1.000000
v -4.000000 4.500000 4.000000
v -6.000000 4.500000 1.000000
v -6.000000 4.500000 4.000000
vt 0.875000 0.500000
vt 0.625000 0.750000
vt 0.625000 0.500000
vt 0.875000 0.750000
vt 0.625000 0.000000
vt 0.625000 0.250000
vt 0.562276 0.250000
vt 0.432708 0.331558
vt 0.433544 0.375279
vt 0.375000 0.500000
vt 0.560556 0.500000
vt 0.375000 0.750000
vt 0.375000 1.000000
vt 0.435547 0.480048
vt 0.435928 0.500000
vt 0.561382 0.379960
vt 0.561693 0.334715
vt 0.434793 0.440606
vt 0.561094 0.421681
vt 0.560946 0.443260
vt 0.431923 0.290520
vt 0.562058 0.281674
vt 0.561989 0.291672
vt 0.431336 0.259818
vt 0.562200 0.261037
vt 0.375000 0.250000
vt 0.375000 0.000000
vt 0.431148 0.250000
vt 0.431740 0.280917
vt 0.434377 0.418850
vt 0.625000 1.000000
vt 0.560688 0.480683
vt 0.560688 0.480683
vt 0.433544 0.375279
vt 0.561989 0.291672
vt 0.562200 0.261037
vt 0.435547 0.480048
vt 0.560946 0.443260
vt 0.434793 0.440606
vt 0.434377 0.418850
vt 0.561382 0.379960
vt 0.561094 0.421681
vt 0.432708 0.331558
vt 0.561693 0.334715
vt 0.431923 0.290520
vt 0.431740 0.280917
vt 0.562058 0.281674
vt 0.431336 0.259818
vn 0.0000 0.0000 1.0000
vn -1.0000 0.0000 0.0000
vn 0.0000 1.0000 0.0000
vn 1.0000 0.0000 0.0000
vn 0.0000 -1.0000 0.0000
vn 0.0000 0.0000 -1.0000
usemtl Roof
s off
f 4/1/1 6/2/1 8/3/1
f 4/1/1 2/4/1 6/2/1
usemtl Wall
f 2/5/2 4/6/2 12/7/2
f 21/8/3 19/9/3 7/10/3
f 11/11/4 6/2/4 5/12/4
f 6/2/5 1/13/5 5/12/5
f 13/14/3 11/11/3 10/15/3
f 8/3/3 20/16/3 22/17/3
f 15/18/3 18/19/3 16/20/3
f 19/9/3 22/17/3 20/16/3
f 23/21/3 26/22/3 24/23/3
f 27/24/3 12/7/3 28/25/3
f 3/26/2 1/27/2 9/28/2
f 1/27/2 2/5/2 12/7/2
f 9/28/2 1/27/2 12/7/2
f 7/10/3 3/26/3 21/8/3
f 3/26/3 9/28/3 27/24/3
f 27/24/3 25/29/3 3/26/3
f 25/29/3 23/21/3 3/26/3
f 3/26/3 23/21/3 21/8/3
f 13/14/3 10/15/3 7/10/3
f 19/9/3 17/30/3 7/10/3
f 17/30/3 15/18/3 7/10/3
f 15/18/3 13/14/3 7/10/3
f 5/12/4 7/10/4 10/15/4
f 11/11/4 8/3/4 6/2/4
f 5/12/4 10/15/4 11/11/4
f 6/2/5 2/31/5 1/13/5
f 13/14/3 14/32/3 11/11/3
f 8/3/3 11/11/3 14/32/3
f 16/20/3 18/19/3 8/3/3
f 18/19/3 20/16/3 8/3/3
f 8/3/3 14/32/3 16/20/3
f 12/7/3 4/6/3 28/25/3
f 4/6/3 8/3/3 22/17/3
f 28/25/3 4/6/3 26/22/3
f 24/23/3 26/22/3 4/6/3
f 24/23/3 4/6/3 22/17/3
f 15/18/3 17/30/3 18/19/3
f 19/9/3 21/8/3 22/17/3
f 23/21/3 25/29/3 26/22/3
f 27/24/3 9/28/3 12/7/3
usemtl Convex
f 13/14/4 30/33/4 14/32/4
f 20/16/2 35/34/2 19/9/2
f 22/17/1 40/35/1 24/23/1
f 26/22/1 44/36/1 28/25/1
f 29/37/3 32/38/3 30/33/3
f 16/20/2 31/39/2 15/18/2
f 15/18/6 29/37/6 13/14/6
f 14/32/1 32/38/1 16/20/1
f 33/40/3 36/41/3 34/42/3
f 19/9/6 33/40/6 17/30/6
f 18/19/1 36/41/1 20/16/1
f 17/30/4 34/42/4 18/19/4
f 37/43/3 40/35/3 38/44/3
f 21/8/4 38/44/4 22/17/4
f 24/23/2 39/45/2 23/21/2
f 23/21/6 37/43/6 21/8/6
f 41/46/3 44/36/3 42/47/3
f 25/29/4 42/47/4 26/22/4
f 28/25/2 43/48/2 27/24/2
f 27/24/6 41/46/6 25/29/6
f 13/14/4 29/37/4 30/33/4
f 20/16/2 36/41/2 35/34/2
f 22/17/1 38/44/1 40/35/1
f 26/22/1 42/47/1 44/36/1
f 29/37/3 31/39/3 32/38/3
f 16/20/2 32/38/2 31/39/2
f 15/18/6 31/39/6 29/37/6
f 14/32/1 30/33/1 32/38/1
f 33/40/3 35/34/3 36/41/3
f 19/9/6 35/34/6 33/40/6
f 18/19/1 34/42/1 36/41/1
f 17/30/4 33/40/4 34/42/4
f 37/43/3 39/45/3 40/35/3
f 21/8/4 37/43/4 38/44/4
f 24/23/2 40/35/2 39/45/2
f 23/21/6 39/45/6 37/43/6
f 41/46/3 43/48/3 44/36/3
f 25/29/4 41/46/4 42/47/4
f 28/25/2 44/36/2 43/48/2
f 27/24/6 43/48/6 41/46/6
