# Blender v2.93.6 OBJ File: 'handmade_10.blend'
# www.blender.org
mtllib handmade_10.mtl
o Cube
v -5.000000 -3.000000 0.000000
v -5.000000 -3.000000 6.000000
v -5.000000 3.000000 0.000000
v -5.000000 3.000000 6.000000
v 5.000000 -3.000000 0.000000
v 5.000000 -3.000000 6.000000
v 5.000000 3.000000 0.000000
v 5.000000 3.000000 6.000000
v -1.000000 -3.000000 0.000000
v -5.000000 4.000000 6.000000
v 5.000000 4.000000 6.000000
v 5.000000 -4.000000 6.000000
v 5.000000 0.000000 9.000000
v -5.000000 0.000000 9.000000
v -5.000000 -4.000000 6.000000
v 1.000000 -3.000000 0.000000
v -1.000000 -3.000000 2.000000
v 1.000000 -3.000000 2.000000
v -1.000000 -3.000000 6.000000
v -4.000000 -3.000000 6.000000
v -4.000000 -3.000000 3.000000
v -1.000000 -3.000000 3.000000
v -2.000000 -4.000000 6.000000
v -3.000000 -4.000000 6.000000
v -1.000000 -1.000000 2.000000
v -1.000000 -1.000000 0.000000
v -2.000000 -4.000000 3.000000
v -3.000000 -4.000000 3.000000
v 1.000000 -1.000000 0.000000
v 1.000000 -1.000000 2.000000
v 1.000000 -3.000000 6.000000
v 2.000000 -4.000000 6.000000
v 1.000000 -3.000000 3.000000
v 4.000000 -3.000000 6.000000
v 3.000000 -4.000000 6.000000
v 4.000000 -3.000000 3.000000
v 3.000000 -4.000000 3.000000
v 2.000000 -4.000000 3.000000
v 5.000000 -3.000000 6.750000
v -5.000000 -3.000000 6.750000
v -5.000000 3.000000 6.750000
v 5.000000 3.000000 6.750000
vt 0.513687 0.849861
vt 0.625000 0.900213
vt 0.509954 0.900966
vt 0.625000 0.250000
vt 0.375000 0.500000
vt 0.375000 0.250000
vt 0.375000 0.000000
vt 0.625000 0.000000
vt 0.625000 0.500000
vt 0.625000 0.626950
vt 0.625000 0.750000
vt 0.375000 0.750000
vt 0.502792 0.775448
vt 0.625000 0.772438
vt 0.493596 0.846612
vt 0.375000 0.849570
vt 0.375000 1.000000
vt 0.375000 0.900508
vt 0.488414 0.903239
vt 0.625000 0.850520
vt 0.625000 0.979146
vt 0.625000 1.000000
vt 0.498362 0.979744
vt 0.625000 0.031038
vt 0.625000 0.125122
vt 0.625000 0.213096
vt 0.625000 0.532082
vt 0.625000 0.718082
vt 0.493596 0.846612
vt 0.375000 0.900508
vt 0.375000 0.849570
vt 0.488414 0.903239
vt 0.875000 0.718962
vt 0.875000 0.624878
vt 0.875000 0.536904
vt 0.625000 0.500000
vt 0.625000 0.979146
vt 0.625000 0.916665
vt 0.625000 0.959831
vt 0.625000 1.000000
vt 0.625000 0.850520
vt 0.625000 0.798303
vt 0.625000 0.827357
vt 0.625000 0.827357
vt 0.625000 0.916665
vt 0.625000 0.959831
vt 0.625000 0.900213
vt 0.834831 0.750000
vt 0.791665 0.750000
vt 0.791665 0.750000
vt 0.702357 0.750000
vt 0.673303 0.750000
vt 0.673303 0.750000
vt 0.625000 0.750000
vt 0.625000 0.798303
vt 0.625000 0.772438
vt 0.875000 0.500000
vt 0.625000 0.000000
vt 0.625000 0.250000
vt 0.834831 0.750000
vt 0.702357 0.750000
vt 0.875000 0.750000
vn 0.0000 -1.0000 0.0000
vn 0.0000 1.0000 0.0000
vn -1.0000 0.0000 0.0000
vn 1.0000 0.0000 0.0000
vn 0.0000 0.0000 -1.0000
vn 0.0000 -0.6000 0.8000
vn 0.0000 0.6000 0.8000
vn -0.7071 -0.7071 0.0000
vn 0.7071 -0.7071 0.0000
usemtl Wall
s off
f 33/1/1 19/2/1 22/3/1
f 4/4/2 7/5/2 3/6/2
f 4/4/3 1/7/3 2/8/3
f 8/9/4 13/10/4 6/11/4
f 5/12/1 6/11/1 36/13/1
f 6/11/1 34/14/1 36/13/1
f 18/15/1 16/16/1 5/12/1
f 1/17/1 9/18/1 17/19/1
f 18/15/1 5/12/1 36/13/1
f 17/19/1 18/15/1 33/1/1
f 18/15/1 36/13/1 33/1/1
f 33/1/1 31/20/1 19/2/1
f 20/21/1 2/22/1 21/23/1
f 2/22/1 1/17/1 21/23/1
f 1/17/1 17/19/1 21/23/1
f 17/19/1 33/1/1 22/3/1
f 22/3/1 21/23/1 17/19/1
f 4/4/2 8/9/2 7/5/2
f 40/24/3 14/25/3 2/8/3
f 14/25/3 41/26/3 4/4/3
f 4/4/3 3/6/3 1/7/3
f 14/25/3 4/4/3 2/8/3
f 8/9/4 42/27/4 13/10/4
f 13/10/4 39/28/4 6/11/4
f 6/11/4 5/12/4 7/5/4
f 7/5/4 8/9/4 6/11/4
usemtl Concave
f 30/29/1 26/30/1 29/31/1
f 18/15/3 29/31/3 16/16/3
f 9/18/4 25/32/4 17/19/4
f 17/19/5 30/29/5 18/15/5
f 30/29/1 25/32/1 26/30/1
f 18/15/3 30/29/3 29/31/3
f 9/18/4 26/30/4 25/32/4
f 17/19/5 25/32/5 30/29/5
usemtl Roof
f 40/33/6 13/10/6 14/34/6
f 41/35/7 13/10/7 42/27/7
f 40/33/6 39/28/6 13/10/6
f 41/35/7 14/34/7 13/10/7
usemtl Convex
f 8/9/4 11/36/4 42/27/4
f 21/37/5 27/38/5 28/39/5
f 20/21/5 15/40/5 2/22/5
f 4/4/5 11/36/5 8/9/5
f 33/41/5 37/42/5 38/43/5
f 19/2/5 32/44/5 23/45/5
f 20/21/8 28/39/8 24/46/8
f 23/45/9 22/47/9 19/2/9
f 24/48/1 27/49/1 23/50/1
f 32/51/1 37/52/1 35/53/1
f 34/14/5 12/54/5 35/55/5
f 31/20/8 38/43/8 32/44/8
f 35/55/9 36/56/9 34/14/9
f 10/57/7 42/27/7 11/36/7
f 40/33/6 24/48/6 23/50/6
f 40/24/3 2/8/3 15/58/3
f 6/11/4 39/28/4 12/54/4
f 4/4/3 41/26/3 10/59/3
f 21/37/5 22/47/5 27/38/5
f 20/21/5 24/46/5 15/40/5
f 4/4/5 10/59/5 11/36/5
f 33/41/5 36/56/5 37/42/5
f 19/2/5 31/20/5 32/44/5
f 20/21/8 21/37/8 28/39/8
f 23/45/9 27/38/9 22/47/9
f 24/48/1 28/60/1 27/49/1
f 32/51/1 38/61/1 37/52/1
f 34/14/5 6/11/5 12/54/5
f 31/20/8 33/41/8 38/43/8
f 35/55/9 37/42/9 36/56/9
f 10/57/7 41/35/7 42/27/7
f 12/54/6 39/28/6 35/53/6
f 39/28/6 40/33/6 32/51/6
f 35/53/6 39/28/6 32/51/6
f 40/33/6 15/62/6 24/48/6
f 23/50/6 32/51/6 40/33/6
