# Blender v2.93.6 OBJ File: 'handmade_0.blend'
# www.blender.org
mtllib handmade_0.mtl
o House_Cube.002
v 3.000000 -2.000000 0.000000
v 3.000000 -2.000000 4.000000
v -3.000000 -2.000000 0.000000
v -3.000000 -2.000000 4.000000
v -3.000000 2.000000 4.000000
v -3.000000 2.000000 0.000000
v 3.000000 2.000000 0.000000
v 3.000000 2.000000 4.000000
vt 0.875000 0.500000
vt 0.625000 0.750000
vt 0.625000 0.500000
vt 0.875000 0.750000
vt 0.625000 0.000000
vt 0.375000 0.250000
vt 0.375000 0.000000
vt 0.375000 1.000000
vt 0.375000 0.750000
vt 0.625000 0.250000
vt 0.375000 0.500000
vt 0.625000 1.000000
vt 0.000000 0.000000
vn 0.0000 0.0000 1.0000
vn 0.0000 -1.0000 0.0000
vn 1.0000 0.0000 0.0000
vn 0.0000 1.0000 0.0000
vn -1.0000 0.0000 0.0000
usemtl Roof
s off
f 4/1/1 8/2/1 5/3/1
f 4/1/1 2/4/1 8/2/1
usemtl Wall
f 2/5/2 3/6/2 1/7/2
f 8/2/3 1/8/3 7/9/3
f 7/9/4 5/3/4 8/2/4
f 4/10/5 6/11/5 3/6/5
f 2/5/2 4/10/2 3/6/2
f 8/2/3 2/12/3 1/8/3
f 7/9/4 6/13/4 5/3/4
f 4/10/5 5/3/5 6/11/5
