# Blender v2.93.6 OBJ File: 'handmade_1.blend'
# www.blender.org
mtllib handmade_1.mtl
o House_Cube.002
v 3.000000 -2.000000 0.000000
v 3.000000 -2.000000 4.000000
v -3.000000 -2.000000 0.000000
v -3.000000 -2.000000 4.000000
v 2.000000 2.000000 1.000000
v 2.000000 2.000000 3.000000
v -2.000000 2.000000 1.000000
v -2.000000 2.000000 3.000000
v -3.000000 2.000000 4.000000
v -3.000000 2.000000 0.000000
v 3.000000 2.000000 0.000000
v 3.000000 2.000000 4.000000
v -1.000000 3.000000 3.000000
v -1.000000 3.000000 1.000000
v 1.000000 3.000000 1.000000
v 1.000000 3.000000 3.000000
vt 0.875000 0.500000
vt 0.625000 0.750000
vt 0.625000 0.500000
vt 0.875000 0.750000
vt 0.625000 0.000000
vt 0.375000 0.250000
vt 0.375000 0.000000
vt 0.375000 1.000000
vt 0.375000 0.750000
vt 0.416667 0.541667
vt 0.000000 0.000000
vt 0.583333 0.708333
vt 0.000000 0.000000
vt 0.416667 0.708333
vt 0.625000 0.250000
vt 0.375000 0.500000
vt 0.625000 1.000000
vt 0.583333 0.541667
vt 0.000000 0.000000
vt 0.583333 0.541667
vt 0.416667 0.708333
vt 0.416667 0.541667
vt 0.583333 0.708333
vn 0.0000 0.0000 1.0000
vn 0.0000 -1.0000 0.0000
vn 1.0000 0.0000 0.0000
vn 0.0000 1.0000 0.0000
vn -1.0000 0.0000 0.0000
vn -0.7071 0.7071 0.0000
vn -0.7071 -0.7071 0.0000
vn 0.0000 0.0000 -1.0000
usemtl Roof
s off
f 4/1/1 12/2/1 9/3/1
f 4/1/1 2/4/1 12/2/1
usemtl Wall
f 2/5/2 3/6/2 1/7/2
f 12/2/3 1/8/3 11/9/3
f 7/10/4 10/11/4 9/3/4
f 6/12/4 11/13/4 5/14/4
f 4/15/5 10/16/5 3/6/5
f 2/5/2 4/15/2 3/6/2
f 12/2/3 2/17/3 1/8/3
f 7/10/4 5/14/4 11/9/4
f 9/3/4 12/2/4 6/12/4
f 9/3/4 6/12/4 8/18/4
f 7/10/4 11/9/4 10/11/4
f 9/3/4 8/18/4 7/10/4
f 6/12/4 12/19/4 11/13/4
f 4/15/5 9/3/5 10/16/5
usemtl Convex
f 6/12/1 13/20/1 8/18/1
f 13/20/4 15/21/4 14/22/4
f 8/18/6 14/22/6 7/10/6
f 16/23/7 5/14/7 6/12/7
f 7/10/8 15/21/8 5/14/8
f 6/12/1 16/23/1 13/20/1
f 13/20/4 16/23/4 15/21/4
f 8/18/6 13/20/6 14/22/6
f 16/23/7 15/21/7 5/14/7
f 7/10/8 14/22/8 15/21/8
