# Blender v2.93.6 OBJ File: 'handmade_5.blend'
# www.blender.org
mtllib handmade_5.mtl
o Cube
v -5.000000 2.000000 8.000000
v -5.000000 2.000000 0.000000
v -5.000000 -2.000000 8.000000
v -5.000000 -2.000000 0.000000
v 5.000000 2.000000 8.000000
v 5.000000 -2.000000 8.000000
v 5.000000 2.000000 0.000000
v 5.000000 -2.000000 0.000000
v -5.000000 -2.000000 2.000000
v 5.000000 -2.000000 2.000000
v -5.000000 -4.000000 2.000000
v -5.000000 -4.000000 8.000000
v 5.000000 -4.000000 8.000000
v 5.000000 -4.000000 2.000000
vt 0.625000 0.500000
vt 0.625000 0.500000
vt 0.625000 0.500000
vt 0.465757 0.000000
vt 0.625000 0.250000
vt 0.375000 0.250000
vt 0.625000 0.625000
vt 0.465757 1.000000
vt 0.375000 1.000000
vt 0.625000 0.625000
vt 0.625000 0.500000
vt 0.375000 0.000000
vt 0.625000 0.000000
vt 0.625000 0.625000
vt 0.625000 0.250000
vt 0.625000 0.000000
vt 0.625000 0.625000
vt 0.625000 1.000000
vt 0.465757 1.000000
vt 0.625000 0.000000
vt 0.625000 0.000000
vt 0.625000 0.625000
vt 0.465757 0.000000
vn 0.0000 1.0000 0.0000
vn -1.0000 0.0000 0.0000
vn 0.0000 -1.0000 0.0000
vn 1.0000 0.0000 0.0000
vn 0.0000 0.0000 1.0000
vn 0.0000 0.0000 -1.0000
usemtl Wall
s off
f 7/1/1 1/2/1 5/3/1
f 9/4/2 1/5/2 2/6/2
f 8/7/3 9/8/3 4/9/3
f 10/10/4 8/7/4 7/1/4
f 7/1/1 2/11/1 1/2/1
f 2/6/2 4/12/2 9/4/2
f 9/4/2 3/13/2 1/5/2
f 8/7/3 10/10/3 9/8/3
f 7/1/4 5/3/4 10/10/4
f 5/3/4 6/14/4 10/10/4
usemtl Roof
f 3/13/5 5/15/5 1/5/5
f 3/13/5 6/16/5 5/15/5
usemtl Convex
f 6/14/4 14/17/4 10/10/4
f 14/17/3 12/18/3 11/19/3
f 9/4/2 12/20/2 3/13/2
f 10/10/6 11/19/6 9/8/6
f 3/13/5 13/21/5 6/16/5
f 6/14/4 13/22/4 14/17/4
f 14/17/3 13/22/3 12/18/3
f 9/4/2 11/23/2 12/20/2
f 10/10/6 14/17/6 11/19/6
f 3/13/5 12/20/5 13/21/5
