# Blender v2.93.6 OBJ File: 'handmade_27.blend'
# www.blender.org
mtllib handmade_27.mtl
o House_Cube.002
v -5.000000 -5.000000 0.000000
v -5.000000 -5.000000 12.000000
v -5.000000 5.000000 0.000000
v -5.000000 5.000000 12.000000
v 5.000000 -5.000000 0.000000
v 5.000000 -5.000000 12.000000
v 5.000000 5.000000 0.000000
v 5.000000 5.000000 12.000000
v -4.000000 5.000000 12.000000
v 4.000000 5.000000 12.000000
v 4.000000 5.000000 3.000000
v -4.000000 5.000000 3.000000
v -4.000000 5.000000 10.000000
v 4.000000 5.000000 10.000000
v 0.000000 5.000000 10.000000
v 0.000000 5.000000 3.000000
v -4.000000 7.000000 12.000000
v 4.000000 7.000000 12.000000
v -4.000000 7.000000 10.000000
v 4.000000 7.000000 10.000000
v 0.000000 7.000000 10.000000
v 3.000000 6.000000 10.000000
v 3.000000 6.000000 3.000000
v 1.000000 6.000000 10.000000
v 1.000000 6.000000 3.000000
v -1.000000 6.000000 3.000000
v -3.000000 6.000000 3.000000
v -3.000000 6.000000 10.000000
v -1.000000 6.000000 10.000000
v 0.000000 7.000000 10.000000
v 0.000000 7.000000 10.000000
v -4.000000 7.000000 10.000000
v 4.000000 5.000000 10.000000
v 1.000000 6.000000 10.000000
v 0.000000 6.000000 10.000000
v 3.538283 6.538286 10.000000
v 4.000000 5.000000 0.000000
v -4.000000 5.000000 0.000000
v 1.000000 7.000000 3.000000
v 4.000000 6.000000 0.000000
v 3.000000 7.000000 3.000000
v -4.000000 6.000000 0.000000
v 3.000000 7.000000 0.000000
v 1.000000 7.000000 0.000000
v -1.000000 7.000000 3.000000
v -3.000000 7.000000 3.000000
v -1.000000 7.000000 0.000000
v -3.000000 7.000000 0.000000
v -4.000000 7.000000 3.000000
v -4.000000 7.000000 0.000000
v -4.000000 6.000000 3.000000
v -4.000000 6.000000 0.000000
v 4.000000 6.000000 0.000000
v 4.000000 7.000000 0.000000
v 4.000000 6.000000 3.000000
v 4.000000 7.000000 3.000000
v -4.000000 6.000000 3.000000
v -5.000000 5.000000 3.978617
v 4.000000 6.000000 3.000000
v 0.000000 5.000000 3.000000
v 0.000000 7.000000 3.000000
vt 0.848138 0.500000
vt 0.875000 0.750000
vt 0.625000 0.750000
vt 0.648182 0.500000
vt 0.848138 0.500000
vt 0.625000 0.500000
vt 0.875000 0.500000
vt 0.648182 0.500000
vt 0.625000 0.000000
vt 0.625000 0.250000
vt 0.457888 0.250000
vt 0.375000 0.250000
vt 0.432372 0.277018
vt 0.375000 0.279939
vt 0.375000 0.750000
vt 0.375000 0.500000
vt 0.375000 1.000000
vt 0.581078 0.375718
vt 0.580446 0.276898
vt 0.625000 0.276862
vt 0.581724 0.476927
vt 0.625000 0.476818
vt 0.625000 0.476818
vt 0.625000 0.276862
vt 0.580446 0.276898
vt 0.433170 0.374962
vt 0.433170 0.374962
vt 0.433170 0.374962
vt 0.434003 0.477298
vt 0.432372 0.277018
vt 0.432372 0.277018
vt 0.432372 0.277018
vt 0.434003 0.477298
vt 0.433170 0.374962
vt 0.433170 0.374962
vt 0.432372 0.277018
vt 0.432372 0.277018
vt 0.432372 0.277018
vt 0.434003 0.477298
vt 0.434003 0.477298
vt 0.434003 0.477298
vt 0.434003 0.477298
vt 0.434003 0.477298
vt 0.432372 0.277018
vt 0.432372 0.277018
vt 0.434003 0.477298
vt 0.434003 0.477298
vt 0.375000 0.000000
vt 0.625000 1.000000
vt 0.581724 0.476927
vt 0.375000 0.474295
vt 0.432372 0.277018
vt 0.434003 0.477298
vt 0.432372 0.277018
vt 0.434003 0.477298
vt 0.581078 0.375718
vt 0.433170 0.374962
vt 0.433170 0.374962
vt 0.581078 0.375718
vt 0.581724 0.476927
vt 0.581682 0.470318
vt 0.581724 0.476927
vt 0.581078 0.375718
vt 0.580446 0.276898
vt 0.433170 0.374962
vt 0.000000 0.000000
vt 0.000000 0.000000
vt 0.000000 0.000000
vt 0.000000 0.000000
vt 0.000000 0.000000
vt 0.000000 0.000000
vt 0.000000 0.000000
vt 0.581078 0.375718
vt 0.433170 0.374962
vt 0.000000 0.000000
vt 0.580446 0.276898
vn 0.0000 0.0000 1.0000
vn -1.0000 0.0000 0.0000
vn 0.0000 1.0000 0.0000
vn 1.0000 0.0000 0.0000
vn 0.0000 -1.0000 0.0000
vn -0.7071 0.7071 0.0000
vn 0.0000 0.0000 -1.0000
vn 0.7071 0.7071 0.0000
usemtl Roof
s off
f 9/1/1 2/2/1 6/3/1
f 10/4/1 17/5/1 9/1/1
f 6/3/1 8/6/1 10/4/1
f 9/1/1 4/7/1 2/2/1
f 6/3/1 10/4/1 9/1/1
f 10/4/1 18/8/1 17/5/1
usemtl Wall
f 2/9/2 4/10/2 58/11/2
f 3/12/3 12/13/3 38/14/3
f 8/6/4 5/15/4 7/16/4
f 6/3/5 1/17/5 5/15/5
f 21/18/3 19/19/3 17/20/3
f 14/21/4 18/22/4 10/23/4
f 9/24/2 19/19/2 13/25/2
f 47/26/3 45/27/3 61/28/3
f 11/29/3 14/21/3 8/6/3
f 51/30/2 50/31/2 52/32/2
f 41/33/3 44/34/3 39/35/3
f 45/27/3 48/36/3 46/37/3
f 48/36/3 49/38/3 46/37/3
f 53/39/4 56/40/4 55/41/4
f 41/33/3 54/42/3 43/43/3
f 4/10/3 9/24/3 13/25/3
f 42/44/2 12/13/2 57/45/2
f 11/29/4 40/46/4 59/47/4
f 3/12/2 1/48/2 58/11/2
f 1/48/2 2/9/2 58/11/2
f 3/12/3 58/11/3 12/13/3
f 8/6/4 6/3/4 5/15/4
f 6/3/5 2/49/5 1/17/5
f 17/20/3 18/22/3 21/18/3
f 18/22/3 20/50/3 21/18/3
f 14/21/4 20/50/4 18/22/4
f 9/24/2 17/20/2 19/19/2
f 61/28/3 39/35/3 44/34/3
f 44/34/3 47/26/3 61/28/3
f 7/16/3 37/51/3 11/29/3
f 14/21/3 10/23/3 8/6/3
f 7/16/3 11/29/3 8/6/3
f 51/30/2 49/38/2 50/31/2
f 41/33/3 43/43/3 44/34/3
f 45/27/3 47/26/3 48/36/3
f 48/36/3 50/31/3 49/38/3
f 53/39/4 54/42/4 56/40/4
f 41/33/3 56/40/3 54/42/3
f 13/25/3 12/13/3 58/11/3
f 58/11/3 4/10/3 13/25/3
f 42/44/2 38/52/2 12/13/2
f 11/29/4 37/53/4 40/46/4
usemtl Convex
f 59/47/1 40/46/1 55/41/1
f 57/45/1 27/54/1 51/30/1
f 55/41/1 23/55/1 59/47/1
f 40/46/1 53/39/1 55/41/1
f 52/32/1 42/44/1 57/45/1
f 51/30/1 52/32/1 57/45/1
usemtl Concave
f 15/56/6 25/57/6 16/58/6
f 24/59/3 23/55/3 25/57/3
f 33/60/7 36/61/7 20/50/7
f 11/29/8 22/62/8 14/21/8
f 29/63/3 27/54/3 28/64/3
f 13/25/6 27/54/6 12/13/6
f 26/65/1 46/37/1 27/54/1
f 16/58/8 29/63/8 15/56/8
f 15/66/7 35/67/7 34/68/7
f 28/64/7 21/18/7 29/63/7
f 28/69/7 13/70/7 32/71/7
f 22/62/7 36/61/7 33/60/7
f 35/67/7 31/72/7 34/68/7
f 36/61/7 24/59/7 31/73/7
f 23/55/1 11/29/1 59/47/1
f 12/13/1 27/54/1 57/45/1
f 23/55/1 39/35/1 25/57/1
f 25/57/1 61/28/1 60/74/1
f 46/37/1 51/30/1 27/54/1
f 23/55/1 56/40/1 41/33/1
f 61/28/1 26/65/1 60/74/1
f 15/56/6 24/59/6 25/57/6
f 24/59/3 22/62/3 23/55/3
f 11/29/8 23/55/8 22/62/8
f 29/63/3 26/65/3 27/54/3
f 13/25/6 28/64/6 27/54/6
f 26/65/1 45/27/1 46/37/1
f 16/58/8 26/65/8 29/63/8
f 15/66/7 29/75/7 35/67/7
f 28/64/7 32/76/7 21/18/7
f 35/67/7 29/75/7 31/72/7
f 31/73/7 20/50/7 36/61/7
f 36/61/7 22/62/7 24/59/7
f 23/55/1 41/33/1 39/35/1
f 25/57/1 39/35/1 61/28/1
f 46/37/1 49/38/1 51/30/1
f 23/55/1 55/41/1 56/40/1
f 61/28/1 45/27/1 26/65/1
l 15 30
