# Blender v2.93.6 OBJ File: 'handmade_8.blend'
# www.blender.org
mtllib handmade_8.mtl
o Cube
v -5.000000 2.000000 8.000000
v -5.000000 2.000000 0.000000
v 5.000000 -3.600000 2.000000
v -5.000000 -2.000000 0.000000
v 5.000000 2.000000 8.000000
v -5.000000 -3.600000 2.000000
v 5.000000 2.000000 0.000000
v 5.000000 -2.000000 0.000000
v -5.000000 -2.000000 2.000000
v 5.000000 -2.000000 2.000000
v -5.000000 -4.000000 8.000000
v 5.000000 -4.000000 8.000000
v -4.600000 -3.600000 2.000000
v -4.600000 -4.000000 2.000000
v 4.600000 -3.600000 2.000000
v 4.600000 -4.000000 2.000000
v -5.000000 -3.600000 0.000000
v -5.000000 -4.000000 0.000000
v -4.600000 -3.600000 0.000000
v -4.600000 -4.000000 0.000000
v 5.000000 -4.000000 0.000000
v 5.000000 -3.600000 0.000000
v 4.600000 -3.600000 0.000000
v 4.600000 -4.000000 0.000000
v 0.200000 -4.000000 0.000000
v -0.200000 -4.000000 0.000000
v 0.200000 -4.000000 2.000000
v 0.200000 -3.600000 2.000000
v -0.200000 -3.600000 2.000000
v -0.200000 -4.000000 2.000000
v -0.200000 -3.600000 0.000000
v 0.200000 -3.600000 0.000000
vt 0.625000 0.500000
vt 0.625000 0.500000
vt 0.625000 0.500000
vt 0.465757 0.000000
vt 0.625000 0.000000
vt 0.465757 0.000000
vt 0.625000 0.625000
vt 0.546258 0.810431
vt 0.551238 0.798701
vt 0.625000 0.625000
vt 0.625000 0.625000
vt 0.625000 0.500000
vt 0.465757 0.000000
vt 0.465757 0.000000
vt 0.625000 0.250000
vt 0.375000 0.250000
vt 0.375000 0.000000
vt 0.619524 0.637895
vt 0.619524 0.637895
vt 0.625000 0.625000
vt 0.625000 1.000000
vt 0.465757 1.000000
vt 0.471901 0.985532
vt 0.471901 0.985532
vt 0.546258 0.810431
vt 0.551238 0.798701
vt 0.625000 0.625000
vt 0.625000 0.625000
vt 0.465757 1.000000
vt 0.375000 1.000000
vt 0.550018 0.801574
vt 0.544924 0.813571
vt 0.472169 0.984902
vt 0.472169 0.984902
vt 0.465757 1.000000
vt 0.465757 1.000000
vt 0.619090 0.638916
vt 0.619090 0.638916
vt 0.544924 0.813571
vt 0.550018 0.801574
vt 0.625000 0.250000
vt 0.625000 0.000000
vn 0.0000 1.0000 0.0000
vn -1.0000 0.0000 0.0000
vn 0.0000 -1.0000 0.0000
vn 1.0000 0.0000 0.0000
vn 0.0000 0.0000 -1.0000
vn 0.0000 0.0000 1.0000
usemtl Wall
s off
f 7/1/1 1/2/1 5/3/1
f 6/4/2 11/5/2 9/6/2
f 12/7/3 30/8/3 27/9/3
f 12/7/4 3/10/4 10/11/4
f 7/1/1 2/12/1 1/2/1
f 6/4/2 17/13/2 18/14/2
f 11/5/2 1/15/2 9/6/2
f 1/15/2 2/16/2 9/6/2
f 2/16/2 4/17/2 9/6/2
f 6/4/2 18/14/2 11/5/2
f 16/18/3 24/19/3 21/20/3
f 11/21/3 18/22/3 14/23/3
f 18/22/3 20/24/3 14/23/3
f 16/18/3 21/20/3 12/7/3
f 26/25/3 25/26/3 27/9/3
f 27/9/3 16/18/3 12/7/3
f 12/7/3 11/21/3 30/8/3
f 11/21/3 14/23/3 30/8/3
f 30/8/3 26/25/3 27/9/3
f 12/7/4 21/20/4 3/10/4
f 21/20/4 22/27/4 3/10/4
f 7/1/4 5/3/4 10/11/4
f 5/3/4 12/7/4 10/11/4
f 10/11/4 8/28/4 7/1/4
usemtl Concave
f 8/28/3 9/29/3 4/30/3
f 28/31/5 29/32/5 9/29/5
f 14/23/4 19/33/4 13/34/4
f 13/34/1 17/35/1 6/36/1
f 15/37/2 24/19/2 16/18/2
f 3/10/1 23/38/1 15/37/1
f 29/32/2 26/25/2 30/8/2
f 28/31/1 31/39/1 29/32/1
f 27/9/4 32/40/4 28/31/4
f 8/28/3 10/11/3 9/29/3
f 30/8/5 14/23/5 13/34/5
f 13/34/5 6/36/5 9/29/5
f 9/29/5 10/11/5 28/31/5
f 10/11/5 3/10/5 15/37/5
f 15/37/5 16/18/5 27/9/5
f 10/11/5 15/37/5 28/31/5
f 30/8/5 13/34/5 29/32/5
f 13/34/5 9/29/5 29/32/5
f 15/37/5 27/9/5 28/31/5
f 14/23/4 20/24/4 19/33/4
f 13/34/1 19/33/1 17/35/1
f 15/37/2 23/38/2 24/19/2
f 3/10/1 22/27/1 23/38/1
f 29/32/2 31/39/2 26/25/2
f 28/31/1 32/40/1 31/39/1
f 27/9/4 25/26/4 32/40/4
usemtl Roof
f 11/5/6 5/41/6 1/15/6
f 11/5/6 12/42/6 5/41/6
