# Blender v2.93.6 OBJ File: 'handmade_7.blend'
# www.blender.org
mtllib handmade_7.mtl
o Cube
v -5.000000 2.000000 8.000000
v -5.000000 2.000000 0.000000
v 5.000000 -3.600000 2.000000
v -5.000000 -2.000000 0.000000
v 5.000000 2.000000 8.000000
v -5.000000 -3.600000 2.000000
v 5.000000 2.000000 0.000000
v 5.000000 -2.000000 0.000000
v -5.000000 -2.000000 2.000000
v 5.000000 -2.000000 2.000000
v 5.000000 -2.000000 8.000000
v -5.000000 -4.000000 8.000000
v 5.000000 -4.000000 8.000000
v -5.000000 -2.000000 8.000000
v -4.600000 -3.600000 2.000000
v -4.600000 -4.000000 2.000000
v 4.600000 -3.600000 2.000000
v 4.600000 -4.000000 2.000000
v -5.000000 -3.600000 0.000000
v -5.000000 -4.000000 0.000000
v -4.600000 -3.600000 0.000000
v -4.600000 -4.000000 0.000000
v 5.000000 -4.000000 0.000000
v 5.000000 -3.600000 0.000000
v 4.600000 -3.600000 0.000000
v 4.600000 -4.000000 0.000000
v 0.200000 -4.000000 0.000000
v -0.200000 -4.000000 0.000000
v 0.200000 -4.000000 2.000000
v 0.200000 -3.600000 2.000000
v -0.200000 -3.600000 2.000000
v -0.200000 -4.000000 2.000000
v -0.200000 -3.600000 0.000000
v 0.200000 -3.600000 0.000000
vt 0.625000 0.500000
vt 0.625000 0.500000
vt 0.625000 0.500000
vt 0.625000 0.625000
vt 0.465757 1.000000
vt 0.375000 1.000000
vt 0.375000 0.250000
vt 0.465757 0.000000
vt 0.625000 0.250000
vt 0.625000 0.625000
vt 0.625000 0.500000
vt 0.375000 0.000000
vt 0.625000 0.087399
vt 0.625000 0.580430
vt 0.625000 0.250000
vt 0.625000 0.089140
vt 0.465757 0.000000
vt 0.465757 0.000000
vt 0.625000 0.000000
vt 0.625000 0.625000
vt 0.546258 0.810431
vt 0.551238 0.798701
vt 0.550018 0.801574
vt 0.544924 0.813571
vt 0.625000 0.000000
vt 0.471901 0.985532
vt 0.472169 0.984902
vt 0.472169 0.984902
vt 0.465757 1.000000
vt 0.465757 1.000000
vt 0.619090 0.638916
vt 0.619524 0.637895
vt 0.619524 0.637895
vt 0.625000 0.625000
vt 0.619090 0.638916
vt 0.546258 0.810431
vt 0.544924 0.813571
vt 0.550018 0.801574
vt 0.465757 0.000000
vt 0.625000 0.625000
vt 0.625000 1.000000
vt 0.465757 1.000000
vt 0.471901 0.985532
vt 0.551238 0.798701
vt 0.625000 0.625000
vn 0.0000 1.0000 0.0000
vn 0.0000 -1.0000 0.0000
vn -1.0000 0.0000 0.0000
vn 1.0000 0.0000 0.0000
vn 0.0000 0.0000 1.0000
vn 0.0000 0.0000 -1.0000
usemtl Wall
s off
f 7/1/1 1/2/1 5/3/1
f 8/4/2 9/5/2 4/6/2
f 2/7/3 9/8/3 1/9/3
f 10/10/4 7/1/4 5/3/4
f 7/1/1 2/11/1 1/2/1
f 8/4/2 10/10/2 9/5/2
f 4/12/3 9/8/3 2/7/3
f 9/8/3 14/13/3 1/9/3
f 5/3/4 11/14/4 10/10/4
f 10/10/4 8/4/4 7/1/4
usemtl Roof
f 14/13/5 5/15/5 1/9/5
f 14/13/5 11/16/5 5/15/5
usemtl Convex
f 6/17/3 20/18/3 12/19/3
f 13/20/2 32/21/2 29/22/2
f 30/23/6 31/24/6 9/5/6
f 14/13/5 13/25/5 11/16/5
f 16/26/4 21/27/4 15/28/4
f 15/28/1 19/29/1 6/30/1
f 17/31/3 26/32/3 18/33/3
f 3/34/1 25/35/1 17/31/1
f 31/24/3 28/36/3 32/21/3
f 13/20/4 3/34/4 11/14/4
f 30/23/1 33/37/1 31/24/1
f 29/22/4 34/38/4 30/23/4
f 6/17/3 19/39/3 20/18/3
f 12/19/3 14/13/3 6/17/3
f 14/13/3 9/8/3 6/17/3
f 18/33/2 26/32/2 23/40/2
f 12/41/2 20/42/2 16/26/2
f 20/42/2 22/43/2 16/26/2
f 18/33/2 23/40/2 13/20/2
f 28/36/2 27/44/2 29/22/2
f 29/22/2 18/33/2 13/20/2
f 13/20/2 12/41/2 32/21/2
f 12/41/2 16/26/2 32/21/2
f 32/21/2 28/36/2 29/22/2
f 32/21/6 16/26/6 15/28/6
f 15/28/6 6/30/6 9/5/6
f 9/5/6 10/10/6 30/23/6
f 10/10/6 3/34/6 17/31/6
f 17/31/6 18/33/6 29/22/6
f 10/10/6 17/31/6 30/23/6
f 32/21/6 15/28/6 31/24/6
f 15/28/6 9/5/6 31/24/6
f 17/31/6 29/22/6 30/23/6
f 14/13/5 12/19/5 13/25/5
f 16/26/4 22/43/4 21/27/4
f 15/28/1 21/27/1 19/29/1
f 17/31/3 25/35/3 26/32/3
f 3/34/1 24/45/1 25/35/1
f 31/24/3 33/37/3 28/36/3
f 13/20/4 23/40/4 3/34/4
f 23/40/4 24/45/4 3/34/4
f 3/34/4 10/10/4 11/14/4
f 30/23/1 34/38/1 33/37/1
f 29/22/4 27/44/4 34/38/4
