# Blender v2.93.6 OBJ File: 'handmade_28.blend'
# www.blender.org
mtllib handmade_28.mtl
o House_Cube.002
v -4.000000 -4.000000 0.000000
v -4.000000 -4.000000 8.000000
v -4.000000 4.000000 0.000000
v -4.000000 4.000000 8.000000
v 4.000000 -4.000000 0.000000
v 4.000000 -4.000000 8.000000
v 4.000000 4.000000 0.000000
v 4.000000 4.000000 8.000000
v -3.000000 -4.000000 1.000000
v 3.000000 -4.000000 1.000000
v 3.000000 -4.000000 7.000000
v -3.000000 -4.000000 7.000000
v -3.000000 -4.000000 4.000000
v 3.000000 -4.000000 4.000000
v 0.000000 -4.000000 7.000000
v 0.000000 -4.000000 4.000000
v 0.000000 -4.000000 1.000000
v 3.000000 -5.000000 4.000000
v 3.000000 -5.000000 7.000000
v 0.000000 -5.000000 4.000000
v 0.000000 -5.000000 7.000000
v -3.000000 -5.000000 4.000000
v -3.000000 -5.000000 1.000000
v 0.000000 -5.000000 1.000000
vt 0.875000 0.500000
vt 0.625000 0.750000
vt 0.625000 0.500000
vt 0.875000 0.750000
vt 0.625000 0.000000
vt 0.375000 0.250000
vt 0.375000 0.000000
vt 0.625000 0.250000
vt 0.375000 0.500000
vt 0.375000 0.750000
vt 0.398662 0.970125
vt 0.502362 0.973669
vt 0.375000 1.000000
vt 0.603381 0.777432
vt 0.500541 0.776061
vt 0.501462 0.876033
vt 0.397679 0.774691
vt 0.604855 0.880916
vt 0.398155 0.869369
vt 0.606227 0.977218
vt 0.625000 1.000000
vt 0.603381 0.777432
vt 0.502362 0.973669
vt 0.604855 0.880916
vt 0.500541 0.776061
vt 0.501462 0.876033
vt 0.398662 0.970125
vt 0.398155 0.869369
vn 0.0000 0.0000 1.0000
vn -1.0000 0.0000 0.0000
vn 0.0000 1.0000 0.0000
vn 1.0000 0.0000 0.0000
vn 0.0000 -1.0000 0.0000
vn 0.0000 0.0000 -1.0000
usemtl Roof
s off
f 4/1/1 6/2/1 8/3/1
f 4/1/1 2/4/1 6/2/1
usemtl Wall
f 2/5/2 3/6/2 1/7/2
f 4/8/3 7/9/3 3/6/3
f 8/3/4 5/10/4 7/9/4
f 9/11/5 13/12/5 1/13/5
f 11/14/5 14/15/5 6/2/5
f 16/16/5 10/17/5 14/15/5
f 15/18/5 13/12/5 16/16/5
f 2/5/2 4/8/2 3/6/2
f 4/8/3 8/3/3 7/9/3
f 8/3/4 6/2/4 5/10/4
f 1/13/5 5/10/5 17/19/5
f 5/10/5 10/17/5 17/19/5
f 17/19/5 9/11/5 1/13/5
f 12/20/5 2/21/5 13/12/5
f 2/21/5 1/13/5 13/12/5
f 6/2/5 2/21/5 15/18/5
f 2/21/5 12/20/5 15/18/5
f 15/18/5 11/14/5 6/2/5
f 10/17/5 5/10/5 14/15/5
f 5/10/5 6/2/5 14/15/5
f 16/16/5 17/19/5 10/17/5
f 15/18/5 12/20/5 13/12/5
usemtl Convex
f 15/18/1 19/22/1 11/14/1
f 9/11/2 22/23/2 13/12/2
f 21/24/5 18/25/5 19/22/5
f 11/14/4 18/25/4 14/15/4
f 16/16/2 21/24/2 15/18/2
f 14/15/6 20/26/6 16/16/6
f 20/26/5 23/27/5 24/28/5
f 13/12/1 20/26/1 16/16/1
f 16/16/4 24/28/4 17/19/4
f 17/19/6 23/27/6 9/11/6
f 15/18/1 21/24/1 19/22/1
f 9/11/2 23/27/2 22/23/2
f 21/24/5 20/26/5 18/25/5
f 11/14/4 19/22/4 18/25/4
f 16/16/2 20/26/2 21/24/2
f 14/15/6 18/25/6 20/26/6
f 20/26/5 22/23/5 23/27/5
f 13/12/1 22/23/1 20/26/1
f 16/16/4 20/26/4 24/28/4
f 17/19/6 24/28/6 23/27/6
