# Blender v2.93.6 OBJ File: 'handmade_17.blend'
# www.blender.org
mtllib handmade_17.mtl
o Cube
v 2.000000 3.000000 6.000000
v 2.000000 3.000000 0.000000
v 2.000000 -3.000000 -0.000001
v -2.000000 3.000000 6.000000
v -2.000000 3.000000 0.000000
v -2.000000 -3.000000 6.000000
v -2.000000 -3.000000 0.000000
v 2.000000 -1.000000 2.000000
v 2.000000 -1.000000 0.000000
v 2.000000 -3.000000 6.000000
v 2.000000 1.000000 0.000000
v 2.000000 1.000000 2.000000
v -2.000000 1.000000 0.000000
v -2.000000 -1.000000 0.000000
v -2.000000 1.000000 2.000000
v -2.000000 -1.000000 2.000000
vt 0.625000 0.000000
vt 0.375000 0.250000
vt 0.375000 0.000000
vt 0.625000 0.500000
vt 0.625000 0.750000
vt 0.464853 0.579089
vt 0.375000 0.704486
vt 0.375000 1.000000
vt 0.375000 0.750000
vt 0.207612 0.574220
vt 0.375000 0.500000
vt 0.625000 0.250000
vt 0.375000 0.582799
vt 0.375000 0.500000
vt 0.375000 0.750000
vt 0.463439 0.668955
vt 0.375000 0.669051
vt 0.625000 1.000000
vt 0.125000 0.750000
vt 0.187922 0.636569
vt 0.125000 0.668311
vt 0.125000 0.585301
vt 0.125000 0.500000
vt 0.187922 0.636569
vt 0.207612 0.574220
vt 0.125000 0.668311
vt 0.125000 0.585301
vt 0.375000 0.454486
vt 0.625000 0.250000
vt 0.375000 0.250000
vn 0.0000 1.0000 0.0000
vn -1.0000 0.0000 0.0000
vn 0.0000 -1.0000 0.0000
vn 1.0000 0.0000 0.0000
vn 0.0000 0.0000 1.0000
usemtl Wall
s off
f 4/1/1 2/2/1 5/3/1
f 6/4/2 4/5/2 16/6/2
f 10/7/3 7/8/3 3/9/3
f 10/7/4 12/10/4 1/11/4
f 4/1/1 1/12/1 2/2/1
f 14/13/2 7/14/2 16/6/2
f 7/14/2 6/4/2 16/6/2
f 4/5/2 5/15/2 15/16/2
f 5/15/2 13/17/2 15/16/2
f 4/5/2 15/16/2 16/6/2
f 10/7/3 6/18/3 7/8/3
f 10/7/4 3/19/4 8/20/4
f 3/19/4 9/21/4 8/20/4
f 11/22/4 2/23/4 12/10/4
f 2/23/4 1/11/4 12/10/4
f 10/7/4 8/20/4 12/10/4
usemtl Concave
f 12/10/5 16/24/5 8/20/5
f 11/22/1 15/25/1 12/10/1
f 8/20/3 14/26/3 9/21/3
f 12/10/5 15/25/5 16/24/5
f 11/22/1 13/27/1 15/25/1
f 8/20/3 16/24/3 14/26/3
usemtl Roof
f 10/28/5 4/29/5 6/4/5
f 10/28/5 1/30/5 4/29/5
