# Blender v2.93.6 OBJ File: 'handmade_12.blend'
# www.blender.org
mtllib handmade_12.mtl
o Cube
v 2.000000 3.000000 6.000000
v 2.000000 3.000000 0.000000
v 2.000000 -3.000000 6.000000
v 2.000000 -3.000000 -0.000001
v -2.000000 3.000000 6.000000
v -2.000000 3.000000 0.000000
v -2.000000 -3.000000 6.000000
v -2.000000 -3.000000 0.000000
v 2.000000 -3.000000 2.000000
v 0.000000 -3.000000 6.000000
v 2.000000 -1.000000 6.000000
v 0.000000 -3.000000 2.000000
v 2.000000 -1.000000 2.000000
v 0.000000 -4.000000 6.000000
v 0.000000 -4.000000 2.000000
v 3.000000 -1.000000 6.000000
v 3.000000 -3.000000 6.000000
v 3.000000 -1.000000 2.000000
v 3.000000 -4.000000 6.000000
v 3.000000 -4.000000 2.000000
v 0.000000 -3.000000 0.000000
v 2.000000 -1.000000 0.000000
vt 0.625000 0.000000
vt 0.375000 0.250000
vt 0.375000 0.000000
vt 0.625000 0.500000
vt 0.375000 0.750000
vt 0.375000 0.500000
vt 0.375000 0.500000
vt 0.375000 0.660517
vt 0.187922 0.636569
vt 0.446450 0.885646
vt 0.625000 0.873017
vt 0.625000 0.873017
vt 0.187922 0.636569
vt 0.375000 0.750000
vt 0.205834 0.750000
vt 0.455834 0.750000
vt 0.446450 0.885646
vt 0.625000 1.000000
vt 0.375000 1.000000
vt 0.625000 0.250000
vt 0.625000 0.750000
vt 0.125000 0.668311
vt 0.125000 0.500000
vt 0.375000 0.660517
vt 0.375000 0.750000
vt 0.625000 0.750000
vt 0.375000 0.868026
vt 0.455834 0.750000
vt 0.375000 0.750000
vt 0.205834 0.750000
vt 0.125000 0.750000
vt 0.625000 0.250000
vt 0.498017 0.500000
vt 0.375000 0.410517
vt 0.375000 0.500000
vt 0.375000 0.410517
vt 0.375000 0.500000
vt 0.375000 0.500000
vt 0.375000 0.250000
vt 0.498017 0.500000
vn 0.0000 1.0000 0.0000
vn -1.0000 0.0000 0.0000
vn 1.0000 0.0000 0.0000
vn 0.0000 -1.0000 0.0000
vn 0.0000 0.0000 -1.0000
vn 0.0000 0.0000 1.0000
usemtl Wall
s off
f 5/1/1 2/2/1 6/3/1
f 7/4/2 6/5/2 8/6/2
f 1/7/3 11/8/3 13/9/3
f 12/10/2 14/11/2 10/12/2
f 18/13/3 17/14/3 20/15/3
f 11/8/1 18/13/1 13/9/1
f 20/16/4 14/11/4 15/17/4
f 12/10/4 7/18/4 8/19/4
f 5/1/1 1/20/1 2/2/1
f 7/4/2 5/21/2 6/5/2
f 22/22/3 2/23/3 13/9/3
f 2/23/3 1/7/3 13/9/3
f 12/10/2 15/17/2 14/11/2
f 16/24/3 17/14/3 18/13/3
f 17/14/3 19/25/3 20/15/3
f 11/8/1 16/24/1 18/13/1
f 20/16/4 19/26/4 14/11/4
f 8/19/4 21/27/4 12/10/4
f 12/10/4 10/12/4 7/18/4
usemtl Concave
f 9/28/4 21/27/4 4/29/4
f 15/17/5 12/10/5 9/30/5
f 22/22/3 9/30/3 4/31/3
f 9/28/4 12/10/4 21/27/4
f 13/9/5 18/13/5 9/30/5
f 18/13/5 20/16/5 9/30/5
f 20/16/5 15/17/5 9/30/5
f 22/22/3 13/9/3 9/30/3
usemtl Roof
f 5/32/6 10/33/6 11/34/6
f 3/35/6 16/36/6 11/34/6
f 19/37/6 17/38/6 3/35/6
f 11/34/6 1/39/6 5/32/6
f 5/32/6 7/4/6 10/33/6
f 10/33/6 3/35/6 11/34/6
f 3/35/6 17/38/6 16/36/6
f 10/33/6 14/40/6 3/35/6
f 14/40/6 19/37/6 3/35/6
