# Blender v2.93.6 OBJ File: 'handmade_20.blend'
# www.blender.org
mtllib handmade_20.mtl
o House_Cube.002
v 3.000000 -2.000000 0.000000
v 3.000000 -2.000000 4.000000
v -3.000000 -2.000000 0.000000
v -3.000000 -2.000000 4.000000
v -3.000000 2.000000 4.000000
v -3.000000 2.000000 0.000000
v 3.000000 2.000000 0.000000
v 3.000000 2.000000 4.000000
v -2.000000 -2.000000 3.000000
v -2.000000 -2.000000 1.000000
v 2.000000 -2.000000 1.000000
v 2.000000 -2.000000 3.000000
v 1.931852 -2.517638 1.000000
v 1.931852 -2.517638 3.000000
v 1.732051 -3.000000 1.000000
v 1.732051 -3.000000 3.000000
v 1.414214 -3.414214 1.000000
v 1.414214 -3.414214 3.000000
v 1.000000 -3.732051 1.000000
v 1.000000 -3.732051 3.000000
v 0.517638 -3.931852 1.000000
v 0.517638 -3.931852 3.000000
v -0.000000 -4.000000 1.000000
v -0.000000 -4.000000 3.000000
v -0.517638 -3.931850 1.000000
v -0.517638 -3.931852 3.000000
v -1.000000 -3.732050 1.000000
v -1.000000 -3.732051 3.000000
v -1.414210 -3.414210 1.000000
v -1.414213 -3.414214 3.000000
v -1.732050 -3.000000 1.000000
v -1.732051 -3.000000 3.000000
v -1.931850 -2.517640 1.000000
v -1.931852 -2.517638 3.000000
v -2.000000 -2.000000 0.000000
v 2.000000 -2.000000 0.000000
vt 0.875000 0.500000
vt 0.625000 0.750000
vt 0.625000 0.500000
vt 0.370000 0.042154
vt 0.457846 0.130000
vt 0.010000 0.250000
vt 0.875000 0.750000
vt 0.481822 0.187883
vt 0.490000 0.250000
vt 0.018178 0.187883
vt 0.042154 0.130000
vt 0.080294 0.080294
vt 0.130000 0.042154
vt 0.187883 0.018178
vt 0.250000 0.010000
vt 0.312117 0.018178
vt 0.419706 0.080294
vt 0.625000 0.000000
vt 0.625000 0.250000
vt 0.577226 0.040497
vt 0.375000 1.000000
vt 0.375000 0.750000
vt 0.375000 0.500000
vt 0.375000 0.250000
vt 0.750000 1.000000
vt 0.708333 0.500000
vt 0.750000 0.500000
vt 0.708333 1.000000
vt 0.666667 0.500000
vt 0.666667 1.000000
vt 0.625000 0.500000
vt 0.625000 1.000000
vt 0.583333 0.500000
vt 0.583333 1.000000
vt 0.541666 0.500000
vt 0.541666 1.000000
vt 0.500000 0.500000
vt 0.500000 1.000000
vt 0.458333 0.500000
vt 0.416666 1.000000
vt 0.416666 0.500000
vt 0.375000 0.500000
vt 0.375000 1.000000
vt 0.333333 0.500000
vt 0.333333 1.000000
vt 0.291667 0.500000
vt 0.291667 1.000000
vt 0.250000 0.500000
vt 0.375000 0.210635
vt 0.427857 0.207770
vt 0.375000 0.041235
vt 0.375000 0.000000
vt 0.432343 0.038046
vt 0.569613 0.206723
vt 0.625000 1.000000
vt 0.000000 0.000000
vt 0.458333 1.000000
vt 0.250000 1.000000
vt 0.957846 0.130000
vt 0.870000 0.042154
vt 0.630000 0.042154
vt 0.518178 0.187883
vt 0.510000 0.250000
vt 0.990000 0.250000
vt 0.981822 0.187883
vt 0.919706 0.080294
vt 0.812117 0.018178
vt 0.750000 0.010000
vt 0.687883 0.018178
vt 0.580294 0.080294
vt 0.542154 0.130000
vn 0.0000 0.0000 1.0000
vn 0.0000 -1.0000 0.0000
vn 1.0000 0.0000 0.0000
vn 0.0000 1.0000 0.0000
vn -1.0000 0.0000 0.0000
vn 0.9914 -0.1305 0.0000
vn 0.9239 -0.3827 0.0000
vn 0.7934 -0.6088 0.0000
vn 0.6088 -0.7934 0.0000
vn 0.3827 -0.9239 0.0000
vn 0.1305 -0.9914 0.0000
vn -0.1305 -0.9914 0.0000
vn -0.3827 -0.9239 -0.0000
vn -0.6088 -0.7933 -0.0000
vn -0.7933 -0.6088 -0.0000
vn -0.9239 -0.3827 -0.0000
vn -0.9914 -0.1305 -0.0000
vn -0.6088 -0.7934 -0.0000
vn -0.7934 -0.6088 -0.0000
vn 0.0000 0.0000 -1.0000
usemtl Roof
s off
f 4/1/1 8/2/1 5/3/1
f 20/4/1 16/5/1 9/6/1
f 4/1/1 2/7/1 8/2/1
f 14/8/1 12/9/1 16/5/1
f 12/9/1 9/6/1 16/5/1
f 9/6/1 34/10/1 32/11/1
f 32/11/1 30/12/1 28/13/1
f 28/13/1 26/14/1 24/15/1
f 24/15/1 22/16/1 20/4/1
f 20/4/1 18/17/1 16/5/1
f 9/6/1 32/11/1 28/13/1
f 28/13/1 24/15/1 9/6/1
f 24/15/1 20/4/1 9/6/1
usemtl Wall
f 2/18/2 4/19/2 12/20/2
f 8/2/3 1/21/3 7/22/3
f 7/22/4 5/3/4 8/2/4
f 4/19/5 6/23/5 3/24/5
f 12/25/6 13/26/6 11/27/6
f 14/28/7 15/29/7 13/26/7
f 16/30/8 17/31/8 15/29/8
f 18/32/9 19/33/9 17/31/9
f 20/34/10 21/35/10 19/33/10
f 22/36/11 23/37/11 21/35/11
f 24/38/12 25/39/12 23/37/12
f 25/39/13 28/40/13 27/41/13
f 28/40/14 29/42/14 27/41/14
f 30/43/15 31/44/15 29/42/15
f 32/45/16 33/46/16 31/44/16
f 34/47/17 10/48/17 33/46/17
f 35/49/2 10/50/2 3/24/2
f 36/51/2 1/52/2 11/53/2
f 11/53/2 1/52/2 2/18/2
f 4/19/2 3/24/2 10/50/2
f 4/19/2 10/50/2 9/54/2
f 12/20/2 11/53/2 2/18/2
f 4/19/2 9/54/2 12/20/2
f 8/2/3 2/55/3 1/21/3
f 7/22/4 6/56/4 5/3/4
f 4/19/5 5/3/5 6/23/5
f 12/25/6 14/28/6 13/26/6
f 14/28/7 16/30/7 15/29/7
f 16/30/8 18/32/8 17/31/8
f 18/32/9 20/34/9 19/33/9
f 20/34/10 22/36/10 21/35/10
f 22/36/11 24/38/11 23/37/11
f 24/38/12 26/57/12 25/39/12
f 25/39/13 26/57/13 28/40/13
f 28/40/18 30/43/18 29/42/18
f 30/43/19 32/45/19 31/44/19
f 32/45/16 34/47/16 33/46/16
f 34/47/17 9/58/17 10/48/17
usemtl Concave
f 10/50/2 36/51/2 11/53/2
f 15/59/20 19/60/20 27/61/20
f 10/50/2 35/49/2 36/51/2
f 33/62/20 10/63/20 11/64/20
f 11/64/20 13/65/20 15/59/20
f 15/59/20 17/66/20 19/60/20
f 19/60/20 21/67/20 23/68/20
f 23/68/20 25/69/20 19/60/20
f 25/69/20 27/61/20 19/60/20
f 27/61/20 29/70/20 11/64/20
f 29/70/20 31/71/20 11/64/20
f 31/71/20 33/62/20 11/64/20
f 11/64/20 15/59/20 27/61/20
