# Blender v2.93.6 OBJ File: 'handmade_10.blend'
# www.blender.org
mtllib handmade_10.mtl
o Cube
v -5.000000 -4.000000 0.000000
v -5.000000 4.000000 0.000000
v 5.000000 -4.000000 0.000000
v 5.000000 4.000000 0.000000
v -5.000000 4.000000 6.000000
v 5.000000 4.000000 6.000000
v 5.000000 -4.000000 6.000000
v 5.000000 0.000000 9.000000
v -5.000000 0.000000 9.000000
v -5.000000 -4.000000 6.000000
vt 0.502792 0.775448
vt 0.488414 0.903239
vt 0.375000 0.750000
vt 0.625000 0.250000
vt 0.375000 0.500000
vt 0.375000 0.250000
vt 0.625000 0.500000
vt 0.625000 0.750000
vt 0.375000 0.000000
vt 0.625000 0.000000
vt 0.625000 1.000000
vt 0.625000 0.626950
vt 0.625000 0.125122
vt 0.702357 0.750000
vt 0.875000 0.624878
vt 0.875000 0.500000
vn 0.0000 -1.0000 0.0000
vn 0.0000 1.0000 0.0000
vn 1.0000 0.0000 0.0000
vn -1.0000 0.0000 0.0000
vn 0.0000 -0.6000 0.8000
vn 0.0000 0.6000 0.8000
usemtl Wall
s off
f 7/1/1 1/2/1 3/3/1
f 5/4/2 4/5/2 2/6/2
f 3/3/3 6/7/3 7/8/3
f 5/4/4 1/9/4 10/10/4
f 7/1/1 10/11/1 1/2/1
f 5/4/2 6/7/2 4/5/2
f 4/5/3 6/7/3 3/3/3
f 6/7/3 8/12/3 7/8/3
f 10/10/4 9/13/4 5/4/4
f 5/4/4 2/6/4 1/9/4
usemtl Roof
f 10/14/5 8/12/5 9/15/5
f 5/16/6 8/12/6 6/7/6
f 10/14/5 7/8/5 8/12/5
f 5/16/6 9/15/6 8/12/6
