# Blender v2.93.6 OBJ File: 'handmade_28.blend'
# www.blender.org
mtllib handmade_28.mtl
o House_Cube.002
v -4.000000 -4.000000 0.000000
v -4.000000 -4.000000 8.000000
v -4.000000 4.000000 0.000000
v -4.000000 4.000000 8.000000
v 4.000000 -4.000000 0.000000
v 4.000000 -4.000000 8.000000
v 4.000000 4.000000 0.000000
v 4.000000 4.000000 8.000000
v -3.000000 -4.000000 1.000000
v 3.000000 -4.000000 1.000000
v 3.000000 -4.000000 7.000000
v -3.000000 -4.000000 7.000000
v -3.000000 -4.000000 4.000000
v 3.000000 -4.000000 4.000000
v 0.000000 -4.000000 7.000000
v 0.000000 -4.000000 4.000000
v 3.000000 -5.000000 4.000000
v 3.000000 -5.000000 7.000000
v 0.000000 -5.000000 4.000000
v 0.000000 -5.000000 7.000000
v -3.000000 -5.000000 4.000000
v -3.000000 -5.000000 1.000000
v 0.000000 -5.000000 1.000000
v -3.000000 -4.000000 0.000000
v 3.000000 -4.000000 0.000000
v -3.000000 -5.000000 0.000000
v 0.000000 -5.000000 0.000000
v 3.000000 -5.000000 0.000000
vt 0.875000 0.500000
vt 0.625000 0.750000
vt 0.625000 0.500000
vt 0.604855 0.880916
vt 0.603381 0.777432
vt 0.603381 0.777432
vt 0.502362 0.973669
vt 0.501462 0.876033
vt 0.501462 0.876033
vt 0.875000 0.750000
vt 0.604855 0.880916
vt 0.502362 0.973669
vt 0.625000 0.000000
vt 0.375000 0.250000
vt 0.375000 0.000000
vt 0.625000 0.250000
vt 0.375000 0.500000
vt 0.375000 0.750000
vt 0.397679 0.774691
vt 0.375000 0.781543
vt 0.500541 0.776061
vt 0.398662 0.970125
vt 0.500541 0.776061
vt 0.500541 0.776061
vt 0.398662 0.970125
vt 0.398155 0.869369
vt 0.398155 0.869369
vt 0.398662 0.970125
vt 0.625000 1.000000
vt 0.375000 1.000000
vt 0.500541 0.776061
vt 0.606227 0.977218
vt 0.398662 0.970125
vt 0.375000 0.969170
vt 0.501462 0.876033
vn 0.0000 0.0000 1.0000
vn -1.0000 0.0000 0.0000
vn 0.0000 1.0000 0.0000
vn 1.0000 0.0000 0.0000
vn 0.0000 -1.0000 0.0000
usemtl Roof
s off
f 4/1/1 6/2/1 8/3/1
f 15/4/1 18/5/1 11/6/1
f 13/7/1 19/8/1 16/9/1
f 4/1/1 2/10/1 6/2/1
f 15/4/1 20/11/1 18/5/1
f 13/7/1 21/12/1 19/8/1
usemtl Wall
f 2/13/2 3/14/2 1/15/2
f 4/16/3 7/17/3 3/14/3
f 8/3/4 5/18/4 7/17/4
f 5/18/5 10/19/5 25/20/5
f 11/6/5 14/21/5 6/2/5
f 15/4/5 13/7/5 16/9/5
f 9/22/2 21/12/2 13/7/2
f 20/11/5 17/23/5 18/5/5
f 11/6/4 17/23/4 14/21/4
f 16/9/2 20/11/2 15/4/2
f 17/23/4 25/24/4 14/21/4
f 19/8/5 22/25/5 23/26/5
f 22/25/5 27/27/5 23/26/5
f 9/22/2 26/28/2 22/25/2
f 13/7/5 2/29/5 1/30/5
f 19/8/5 28/31/5 17/23/5
f 2/13/2 4/16/2 3/14/2
f 4/16/3 8/3/3 7/17/3
f 8/3/4 6/2/4 5/18/4
f 6/2/5 2/29/5 15/4/5
f 2/29/5 12/32/5 15/4/5
f 15/4/5 11/6/5 6/2/5
f 10/19/5 5/18/5 14/21/5
f 5/18/5 6/2/5 14/21/5
f 15/4/5 12/32/5 13/7/5
f 9/22/2 22/25/2 21/12/2
f 20/11/5 19/8/5 17/23/5
f 11/6/4 18/5/4 17/23/4
f 16/9/2 19/8/2 20/11/2
f 17/23/4 28/31/4 25/24/4
f 19/8/5 21/12/5 22/25/5
f 22/25/5 26/28/5 27/27/5
f 9/22/2 24/33/2 26/28/2
f 1/30/5 24/34/5 9/22/5
f 13/7/5 12/32/5 2/29/5
f 1/30/5 9/22/5 13/7/5
f 19/8/5 27/35/5 28/31/5
