# Blender v2.93.6 OBJ File: 'handmade_29.blend'
# www.blender.org
mtllib handmade_29.mtl
o House_Cube.002
v -4.000000 -4.000000 0.000000
v -4.000000 -4.000000 8.000000
v -4.000000 4.000000 0.000000
v -4.000000 4.000000 8.000000
v 4.000000 -4.000000 0.000000
v 4.000000 -4.000000 8.000000
v 4.000000 4.000000 0.000000
v 4.000000 4.000000 8.000000
v 3.000000 -4.000000 1.000000
v -3.000000 -4.000000 7.000000
vt 0.875000 0.500000
vt 0.625000 0.750000
vt 0.625000 0.500000
vt 0.875000 0.750000
vt 0.625000 0.000000
vt 0.375000 0.250000
vt 0.375000 0.000000
vt 0.625000 0.250000
vt 0.375000 0.500000
vt 0.375000 0.750000
vt 0.397679 0.774691
vt 0.606227 0.977218
vt 0.375000 1.000000
vt 0.604855 0.880916
vt 0.625000 1.000000
vn 0.0000 0.0000 1.0000
vn -1.0000 0.0000 0.0000
vn 0.0000 1.0000 0.0000
vn 1.0000 0.0000 0.0000
vn 0.0000 -1.0000 0.0000
usemtl Roof
s off
f 4/1/1 6/2/1 8/3/1
f 4/1/1 2/4/1 6/2/1
usemtl Wall
f 2/5/2 3/6/2 1/7/2
f 4/8/3 7/9/3 3/6/3
f 8/3/4 5/10/4 7/9/4
f 9/11/5 10/12/5 1/13/5
f 10/14/5 9/11/5 6/2/5
f 2/5/2 4/8/2 3/6/2
f 4/8/3 8/3/3 7/9/3
f 8/3/4 6/2/4 5/10/4
f 1/13/5 5/10/5 9/11/5
f 10/12/5 2/15/5 1/13/5
f 6/2/5 2/15/5 10/14/5
f 9/11/5 5/10/5 6/2/5
