# Blender v2.93.6 OBJ File: 'handmade_14.blend'
# www.blender.org
mtllib handmade_14.mtl
o Cube
v 2.000000 3.000000 6.000000
v 2.000000 3.000000 0.000000
v 2.000000 -3.000000 6.000000
v -2.000000 3.000000 6.000000
v -2.000000 3.000000 0.000000
v -2.000000 -3.000000 6.000000
v -2.000000 -3.000000 0.000000
v 2.000000 -3.000000 2.000000
v 0.000000 -3.000000 6.000000
v 2.000000 -1.000000 6.000000
v 0.000000 -3.000000 2.000000
v 2.000000 -1.000000 2.000000
v 0.000000 -3.000000 0.000000
v 2.000000 -1.000000 0.000000
v 1.000000 -4.000000 6.000000
v 1.000000 -4.000000 2.000000
v 3.000000 -2.000000 6.000000
v 3.000000 -2.000000 2.000000
v 2.000000 -3.000000 0.000000
v 1.000000 -4.000000 0.000000
v 3.000000 -2.000000 0.000000
vt 0.625000 0.000000
vt 0.375000 0.250000
vt 0.375000 0.000000
vt 0.625000 0.500000
vt 0.375000 0.750000
vt 0.375000 0.500000
vt 0.375000 0.500000
vt 0.375000 0.660517
vt 0.187922 0.636569
vt 0.192851 0.667785
vt 0.375000 0.750000
vt 0.205834 0.750000
vt 0.450712 0.824045
vt 0.625000 0.873017
vt 0.446450 0.885646
vt 0.625000 1.000000
vt 0.375000 1.000000
vt 0.375000 0.704486
vt 0.205834 0.750000
vt 0.261650 0.667785
vt 0.261650 0.667785
vt 0.205834 0.750000
vt 0.450712 0.824045
vt 0.187922 0.636569
vt 0.625000 0.250000
vt 0.625000 0.750000
vt 0.125000 0.668311
vt 0.125000 0.500000
vt 0.375000 0.750000
vt 0.625000 0.810589
vt 0.375000 0.868026
vt 0.446450 0.885646
vt 0.192851 0.667785
vt 0.625000 0.250000
vt 0.498017 0.500000
vt 0.375000 0.410517
vt 0.375000 0.500000
vt 0.375000 0.454486
vt 0.435589 0.500000
vt 0.375000 0.250000
vn 0.0000 1.0000 0.0000
vn -1.0000 0.0000 0.0000
vn 1.0000 0.0000 0.0000
vn 0.7071 -0.7071 0.0000
vn -0.7071 -0.7071 0.0000
vn 0.0000 -1.0000 0.0000
vn 0.7071 0.7071 0.0000
vn 0.0000 0.0000 1.0000
usemtl Wall
s off
f 4/1/1 2/2/1 5/3/1
f 6/4/2 5/5/2 7/6/2
f 1/7/3 10/8/3 12/9/3
f 18/10/4 3/11/4 16/12/4
f 16/13/5 9/14/5 11/15/5
f 11/15/6 6/16/6 7/17/6
f 18/10/7 10/8/7 17/18/7
f 8/19/4 21/20/4 18/21/4
f 16/13/4 19/22/4 8/19/4
f 11/15/5 20/23/5 16/13/5
f 18/10/7 14/24/7 12/9/7
f 4/1/1 1/25/1 2/2/1
f 6/4/2 4/26/2 5/5/2
f 14/27/3 2/28/3 12/9/3
f 2/28/3 1/7/3 12/9/3
f 17/18/4 3/11/4 18/10/4
f 3/11/4 15/29/4 16/12/4
f 16/13/5 15/30/5 9/14/5
f 7/17/6 13/31/6 11/15/6
f 11/15/6 9/14/6 6/16/6
f 18/10/7 12/9/7 10/8/7
f 8/19/4 19/22/4 21/20/4
f 16/13/4 20/23/4 19/22/4
f 11/15/5 13/32/5 20/23/5
f 18/10/7 21/33/7 14/24/7
usemtl Concave
f 16/13/8 8/19/8 18/21/8
usemtl Roof
f 4/34/8 9/35/8 10/36/8
f 10/36/8 3/37/8 17/38/8
f 9/35/8 15/39/8 3/37/8
f 10/36/8 1/40/8 4/34/8
f 4/34/8 6/4/8 9/35/8
f 9/35/8 3/37/8 10/36/8
