# Blender v2.93.6 OBJ File: 'handmade_23.blend'
# www.blender.org
mtllib handmade_23.mtl
o House_Cube.002
v -4.000000 -4.000000 10.000000
v -4.000000 4.000000 10.000000
v 4.000000 5.000000 12.000000
v 4.258819 4.965926 12.000000
v 4.500000 4.866025 12.000000
v 4.707107 4.707107 12.000000
v 4.866025 4.500000 12.000000
v 4.965926 4.258819 12.000000
v 5.000000 4.000000 12.000000
v 4.965926 3.741181 12.000000
v 4.866025 3.500000 12.000000
v 4.707107 3.292893 12.000000
v 4.500000 3.133975 12.000000
v 4.258819 3.034074 12.000000
v 4.000000 3.000000 12.000000
v 3.741181 3.034074 12.000000
v 3.500000 3.133975 12.000000
v 3.292893 3.292893 12.000000
v 3.133975 3.500000 12.000000
v 3.034074 3.741181 12.000000
v 3.000000 4.000000 12.000000
v 3.034074 4.258819 12.000000
v 3.133975 4.500000 12.000000
v 3.292893 4.707107 12.000000
v 3.500000 4.866025 12.000000
v 3.741181 4.965926 12.000000
v 3.000000 4.000000 10.000000
v 4.000000 3.000000 10.000000
v 3.034074 3.741181 10.000000
v 3.133975 3.500000 10.000000
v 3.292893 3.292893 10.000000
v 3.741181 3.034074 10.000000
v 3.500000 3.133975 10.000000
v 4.000000 -3.000000 12.000000
v 4.258819 -3.034074 12.000000
v 4.500000 -3.133975 12.000000
v 4.707107 -3.292893 12.000000
v 4.866025 -3.500000 12.000000
v 4.965926 -3.741181 12.000000
v 5.000000 -4.000000 12.000000
v 4.965926 -4.258819 12.000000
v 4.866025 -4.500000 12.000000
v 4.707107 -4.707107 12.000000
v 4.500000 -4.866025 12.000000
v 4.258819 -4.965926 12.000000
v 4.000000 -5.000000 12.000000
v 3.741181 -4.965926 12.000000
v 3.500000 -4.866025 12.000000
v 3.292893 -4.707107 12.000000
v 3.133975 -4.500000 12.000000
v 3.034074 -4.258819 12.000000
v 3.000000 -4.000000 12.000000
v 3.034074 -3.741181 12.000000
v 3.133975 -3.500000 12.000000
v 3.292893 -3.292893 12.000000
v 3.500000 -3.133975 12.000000
v 3.741181 -3.034074 12.000000
v 4.000000 -3.000000 10.000000
v 3.000000 -4.000000 10.000000
v 3.133975 -3.500000 10.000000
v 3.034074 -3.741181 10.000000
v 3.292893 -3.292893 10.000000
v 3.500000 -3.133975 10.000000
v 3.741181 -3.034074 10.000000
v -4.000000 4.000000 0.000000
v -4.000000 -4.000000 0.000000
v 4.000000 3.000000 0.000000
v 3.000000 4.000000 0.000000
v 4.000000 -3.000000 0.000000
v 4.258819 4.965926 0.000000
v 3.000000 -4.000000 0.000000
v 4.000000 5.000000 0.000000
v 4.500000 4.866025 0.000000
v 4.707107 4.707107 0.000000
v 4.866025 4.500000 0.000000
v 4.965926 4.258819 0.000000
v 5.000000 4.000000 0.000000
v 4.965926 3.741181 0.000000
v 4.866025 3.500000 0.000000
v 4.707107 3.292893 0.000000
v 4.500000 3.133975 0.000000
v 4.258819 3.034074 0.000000
v 3.034074 4.258819 0.000000
v 3.133975 4.500000 0.000000
v 3.292893 4.707107 0.000000
v 3.500000 4.866025 0.000000
v 3.741181 4.965926 0.000000
v 4.258819 -3.034074 0.000000
v 4.500000 -3.133975 0.000000
v 4.707107 -3.292893 0.000000
v 4.866025 -3.500000 0.000000
v 4.965926 -3.741181 0.000000
v 5.000000 -4.000000 0.000000
v 4.965926 -4.258819 0.000000
v 4.866025 -4.500000 0.000000
v 4.707107 -4.707107 0.000000
v 4.500000 -4.866025 0.000000
v 4.258819 -4.965926 0.000000
v 4.000000 -5.000000 0.000000
v 3.741181 -4.965926 0.000000
v 3.500000 -4.866025 0.000000
v 3.292893 -4.707107 0.000000
v 3.133975 -4.500000 0.000000
v 3.034074 -4.258819 0.000000
vt 0.018178 0.187883
vt 0.419706 0.080294
vt 0.312117 0.481822
vt 0.652063 0.515625
vt 0.655185 0.508088
vt 0.875000 0.500000
vt 0.080294 0.080294
vt 0.312117 0.018178
vt 0.419706 0.419706
vt 0.250000 0.490000
vt 0.187883 0.481822
vt 0.130000 0.457846
vt 0.080294 0.419706
vt 0.042154 0.370000
vt 0.018178 0.312117
vt 0.010000 0.250000
vt 0.042154 0.130000
vt 0.080294 0.080294
vt 0.130000 0.042154
vt 0.187883 0.018178
vt 0.250000 0.010000
vt 0.312117 0.018178
vt 0.370000 0.042154
vt 0.457846 0.130000
vt 0.481822 0.187883
vt 0.490000 0.250000
vt 0.481822 0.312117
vt 0.457846 0.370000
vt 0.419706 0.419706
vt 0.370000 0.457846
vt 0.633088 0.719815
vt 0.625000 0.718750
vt 0.625000 0.531250
vt 0.633088 0.530185
vt 0.640625 0.722937
vt 0.640625 0.527063
vt 0.647097 0.727903
vt 0.647097 0.522097
vt 0.652063 0.734375
vt 0.875000 0.750000
vt 0.656250 0.750000
vt 0.655185 0.741912
vt 0.656250 0.500000
vt 0.370000 0.042154
vt 0.419706 0.080294
vt 0.457846 0.130000
vt 0.481822 0.187883
vt 0.490000 0.250000
vt 0.481822 0.312117
vt 0.457846 0.370000
vt 0.370000 0.457846
vt 0.312117 0.481822
vt 0.250000 0.490000
vt 0.187883 0.481822
vt 0.130000 0.457846
vt 0.080294 0.419706
vt 0.042154 0.370000
vt 0.018178 0.312117
vt 0.010000 0.250000
vt 0.018178 0.187883
vt 0.042154 0.130000
vt 0.130000 0.042154
vt 0.187883 0.018178
vt 0.250000 0.010000
vt 0.375000 0.531250
vt 0.375000 0.718750
vt 0.666667 0.500000
vt 0.708333 1.000000
vt 0.666667 1.000000
vt 0.375000 1.000000
vt 0.625000 0.781250
vt 0.625000 1.000000
vt 0.375000 0.250000
vt 0.625000 0.468750
vt 0.375000 0.468750
vt 0.916667 0.500000
vt 0.958333 1.000000
vt 0.916667 1.000000
vt 0.875000 0.500000
vt 0.875000 1.000000
vt 0.833333 0.500000
vt 0.833333 1.000000
vt 0.791667 0.500000
vt 0.791667 1.000000
vt 0.750000 0.500000
vt 0.750000 1.000000
vt 0.708333 0.500000
vt 0.708333 1.000000
vt 0.666667 0.500000
vt 0.666667 1.000000
vt 0.625000 0.500000
vt 0.625000 1.000000
vt 0.583333 0.500000
vt 0.583333 1.000000
vt 0.541666 0.500000
vt 0.541666 1.000000
vt 0.500000 0.900000
vt 0.208333 0.500000
vt 0.250000 0.500000
vt 0.250000 0.900000
vt 0.500000 1.000000
vt 0.458333 0.900000
vt 0.458333 1.000000
vt 0.416667 0.900000
vt 0.416666 1.000000
vt 0.375000 0.900000
vt 0.333333 1.000000
vt 0.375000 1.000000
vt 0.291667 0.900000
vt 0.333333 0.900000
vt 0.291667 1.000000
vt 0.166666 0.500000
vt 0.208333 1.000000
vt 0.166666 1.000000
vt 0.125000 0.500000
vt 0.125000 1.000000
vt 0.083333 0.500000
vt 0.083333 1.000000
vt 0.041666 0.500000
vt 0.041666 1.000000
vt -0.000000 0.500000
vt -0.000000 1.000000
vt 0.458333 0.500000
vt 0.500000 1.000000
vt 0.458333 1.000000
vt 0.916667 0.500000
vt 0.958333 1.000000
vt 0.916667 1.000000
vt 0.875000 0.500000
vt 0.875000 1.000000
vt 0.833333 0.500000
vt 0.833333 1.000000
vt 0.791667 0.500000
vt 0.791667 1.000000
vt 0.750000 0.500000
vt 0.750000 1.000000
vt 0.708333 0.500000
vt 0.541666 0.500000
vt 0.541666 1.000000
vt 0.625000 0.500000
vt 0.625000 1.000000
vt 0.583333 0.500000
vt 0.583333 1.000000
vt 0.958333 0.500000
vt 1.000000 0.500000
vt 1.000000 0.900000
vt 0.416666 0.500000
vt 0.416666 1.000000
vt 0.375000 0.500000
vt 0.375000 1.000000
vt 0.333333 0.500000
vt 0.333333 1.000000
vt 0.291667 0.500000
vt 0.291667 1.000000
vt 0.250000 1.000000
vt 0.250000 0.900000
vt 0.958333 0.500000
vt 1.000000 1.000000
vt 0.208333 0.900000
vt 0.208333 1.000000
vt 0.166666 0.900000
vt 0.166666 1.000000
vt 0.125000 0.900000
vt 0.125000 1.000000
vt 0.083333 0.900000
vt 0.083333 1.000000
vt 0.041666 0.900000
vt -0.000000 1.000000
vt 0.041666 1.000000
vt 0.625000 0.000000
vt 0.625000 0.250000
vt 0.375000 0.781250
vt 0.500000 0.500000
vt 0.250000 1.000000
vt 0.500000 0.500000
vt 1.000000 1.000000
vt 0.250000 0.500000
vt 1.000000 0.500000
vt -0.000000 0.900000
vt 0.375000 0.000000
vn 0.0000 0.0000 1.0000
vn 1.0000 0.0000 0.0000
vn 0.9239 -0.3827 0.0000
vn 0.0000 -1.0000 0.0000
vn 0.0000 1.0000 0.0000
vn 0.3827 0.9239 0.0000
vn 0.6088 0.7934 0.0000
vn 0.7934 0.6088 0.0000
vn 0.9239 0.3827 0.0000
vn 0.9914 0.1305 0.0000
vn 0.9914 -0.1305 0.0000
vn 0.7934 -0.6088 0.0000
vn 0.6088 -0.7934 0.0000
vn 0.3827 -0.9239 0.0000
vn 0.1305 -0.9914 0.0000
vn -0.9914 0.1305 0.0000
vn -0.1305 -0.9914 0.0000
vn -0.3827 -0.9239 0.0000
vn -0.6088 -0.7934 0.0000
vn -0.7934 -0.6088 0.0000
vn -0.9239 -0.3827 0.0000
vn -0.9914 -0.1305 0.0000
vn -0.9239 0.3827 0.0000
vn -0.7934 0.6088 0.0000
vn -0.6088 0.7934 0.0000
vn -0.3827 0.9239 0.0000
vn -0.1305 0.9914 0.0000
vn 0.1305 0.9914 0.0000
vn -1.0000 0.0000 0.0000
usemtl Roof
s off
f 51/1/1 43/2/1 35/3/1
f 30/4/1 29/5/1 2/6/1
f 18/7/1 14/8/1 6/9/1
f 35/3/1 34/10/1 57/11/1
f 57/11/1 56/12/1 55/13/1
f 55/13/1 54/14/1 53/15/1
f 53/15/1 52/16/1 51/1/1
f 51/1/1 50/17/1 49/18/1
f 49/18/1 48/19/1 47/20/1
f 47/20/1 46/21/1 45/22/1
f 45/22/1 44/23/1 43/2/1
f 43/2/1 42/24/1 41/25/1
f 41/25/1 40/26/1 39/27/1
f 39/27/1 38/28/1 37/29/1
f 37/29/1 36/30/1 35/3/1
f 35/3/1 57/11/1 55/13/1
f 55/13/1 53/15/1 35/3/1
f 53/15/1 51/1/1 35/3/1
f 51/1/1 49/18/1 43/2/1
f 49/18/1 47/20/1 43/2/1
f 47/20/1 45/22/1 43/2/1
f 43/2/1 41/25/1 39/27/1
f 39/27/1 37/29/1 43/2/1
f 37/29/1 35/3/1 43/2/1
f 64/31/1 58/32/1 28/33/1
f 64/31/1 28/33/1 32/34/1
f 63/35/1 64/31/1 32/34/1
f 63/35/1 32/34/1 33/36/1
f 62/37/1 63/35/1 31/38/1
f 63/35/1 33/36/1 31/38/1
f 60/39/1 62/37/1 1/40/1
f 62/37/1 31/38/1 2/6/1
f 62/37/1 2/6/1 1/40/1
f 31/38/1 30/4/1 2/6/1
f 1/40/1 59/41/1 61/42/1
f 61/42/1 60/39/1 1/40/1
f 29/5/1 27/43/1 2/6/1
f 14/8/1 13/44/1 12/45/1
f 12/45/1 11/46/1 10/47/1
f 10/47/1 9/48/1 8/49/1
f 8/49/1 7/50/1 6/9/1
f 6/9/1 5/51/1 4/52/1
f 4/52/1 3/53/1 26/54/1
f 26/54/1 25/55/1 24/56/1
f 24/56/1 23/57/1 22/58/1
f 22/58/1 21/59/1 18/7/1
f 21/59/1 20/60/1 18/7/1
f 20/60/1 19/61/1 18/7/1
f 18/7/1 17/62/1 16/63/1
f 16/63/1 15/64/1 14/8/1
f 14/8/1 12/45/1 6/9/1
f 12/45/1 10/47/1 6/9/1
f 10/47/1 8/49/1 6/9/1
f 6/9/1 4/52/1 26/54/1
f 26/54/1 24/56/1 22/58/1
f 18/7/1 16/63/1 14/8/1
f 6/9/1 26/54/1 22/58/1
f 22/58/1 18/7/1 6/9/1
usemtl Wall
f 67/65/2 58/32/2 69/66/2
f 95/67/3 41/68/3 42/69/3
f 66/70/4 59/71/4 1/72/4
f 65/73/5 27/74/5 68/75/5
f 73/76/6 4/77/6 5/78/6
f 74/79/7 5/78/7 6/80/7
f 75/81/8 6/80/8 7/82/8
f 76/83/9 7/82/9 8/84/9
f 77/85/10 8/84/10 9/86/10
f 78/87/11 9/86/11 10/88/11
f 79/89/3 10/88/3 11/90/3
f 80/91/12 11/90/12 12/92/12
f 81/93/13 12/92/13 13/94/13
f 82/95/14 13/94/14 14/96/14
f 14/96/15 28/97/15 82/95/15
f 83/98/16 68/99/16 27/100/16
f 15/101/17 32/102/17 28/97/17
f 16/103/18 33/104/18 32/102/18
f 17/105/19 31/106/19 33/104/19
f 19/107/20 31/106/20 18/108/20
f 19/107/21 29/109/21 30/110/21
f 20/111/22 27/100/22 29/109/22
f 84/112/23 22/113/23 23/114/23
f 85/115/24 23/114/24 24/116/24
f 86/117/25 24/116/25 25/118/25
f 87/119/26 25/118/26 26/120/26
f 72/121/27 26/120/27 3/122/27
f 100/123/17 46/124/17 47/125/17
f 89/126/6 35/127/6 36/128/6
f 90/129/7 36/128/7 37/130/7
f 91/131/8 37/130/8 38/132/8
f 92/133/9 38/132/9 39/134/9
f 93/135/10 39/134/10 40/136/10
f 94/137/11 40/136/11 41/68/11
f 46/124/15 98/138/15 45/139/15
f 96/140/12 42/69/12 43/141/12
f 97/142/13 43/141/13 44/143/13
f 98/138/14 44/143/14 45/139/14
f 88/144/28 69/145/28 58/146/28
f 101/147/18 47/125/18 48/148/18
f 102/149/19 48/148/19 49/150/19
f 103/151/20 49/150/20 50/152/20
f 104/153/21 50/152/21 51/154/21
f 51/154/22 52/155/22 59/156/22
f 70/157/28 3/158/28 4/77/28
f 52/155/16 61/159/16 59/156/16
f 53/160/23 60/161/23 61/159/23
f 54/162/24 62/163/24 60/161/24
f 55/164/25 63/165/25 62/163/25
f 56/166/26 64/167/26 63/165/26
f 34/168/27 64/167/27 57/169/27
f 65/73/29 1/170/29 2/171/29
f 67/65/2 28/33/2 58/32/2
f 95/67/3 94/137/3 41/68/3
f 66/70/4 71/172/4 59/71/4
f 65/73/5 2/171/5 27/74/5
f 73/76/6 70/157/6 4/77/6
f 74/79/7 73/76/7 5/78/7
f 75/81/8 74/79/8 6/80/8
f 76/83/9 75/81/9 7/82/9
f 77/85/10 76/83/10 8/84/10
f 78/87/11 77/85/11 9/86/11
f 79/89/3 78/87/3 10/88/3
f 80/91/12 79/89/12 11/90/12
f 81/93/13 80/91/13 12/92/13
f 82/95/14 81/93/14 13/94/14
f 15/101/15 28/97/15 14/96/15
f 28/97/15 67/173/15 82/95/15
f 21/174/16 22/113/16 27/100/16
f 22/113/16 83/98/16 27/100/16
f 15/101/17 16/103/17 32/102/17
f 16/103/18 17/105/18 33/104/18
f 17/105/19 18/108/19 31/106/19
f 19/107/20 30/110/20 31/106/20
f 19/107/21 20/111/21 29/109/21
f 20/111/22 21/174/22 27/100/22
f 84/112/23 83/98/23 22/113/23
f 85/115/24 84/112/24 23/114/24
f 86/117/25 85/115/25 24/116/25
f 87/119/26 86/117/26 25/118/26
f 72/121/27 87/119/27 26/120/27
f 100/123/17 99/175/17 46/124/17
f 89/126/6 88/144/6 35/127/6
f 90/129/7 89/126/7 36/128/7
f 91/131/8 90/129/8 37/130/8
f 92/133/9 91/131/9 38/132/9
f 93/135/10 92/133/10 39/134/10
f 94/137/11 93/135/11 40/136/11
f 46/124/15 99/175/15 98/138/15
f 96/140/12 95/67/12 42/69/12
f 97/142/13 96/140/13 43/141/13
f 98/138/14 97/142/14 44/143/14
f 34/176/28 35/127/28 58/146/28
f 35/127/28 88/144/28 58/146/28
f 101/147/18 100/123/18 47/125/18
f 102/149/19 101/147/19 48/148/19
f 103/151/20 102/149/20 49/150/20
f 104/153/21 103/151/21 50/152/21
f 59/156/22 71/177/22 104/153/22
f 104/153/22 51/154/22 59/156/22
f 70/157/28 72/178/28 3/158/28
f 52/155/16 53/160/16 61/159/16
f 53/160/23 54/162/23 60/161/23
f 54/162/24 55/164/24 62/163/24
f 55/164/25 56/166/25 63/165/25
f 56/166/26 57/169/26 64/167/26
f 34/168/27 58/179/27 64/167/27
f 65/73/29 66/180/29 1/170/29
