# Blender v2.93.6 OBJ File: 'handmade_2.blend'
# www.blender.org
mtllib handmade_2.mtl
o Cube.001
v -2.000000 3.000000 7.000000
v 2.000000 3.000000 7.000000
v 2.000000 3.000000 0.000000
v 1.000000 3.000000 0.000000
v 2.000000 -3.000000 0.000000
v 2.000000 -3.000000 7.000000
v -2.000000 -3.000000 7.000000
v -2.000000 -3.000000 0.000000
v -2.000000 3.000000 0.000000
v 2.000000 2.000000 0.000000
vt 0.625000 0.625000
vt 0.625000 0.625000
vt 0.625000 0.625000
vt 0.625000 0.000000
vt 0.375000 0.250000
vt 0.375000 0.000000
vt 0.625000 0.250000
vt 0.375000 0.500000
vt 0.375000 0.875000
vt 0.500000 0.875000
vt 0.625000 0.875000
vt 0.625000 0.500000
vt 0.625000 0.500000
vt 0.625000 1.000000
vt 0.375000 1.000000
vt 0.875000 0.500000
vt 0.875000 0.750000
vn 0.0000 1.0000 0.0000
vn 0.0000 -1.0000 0.0000
vn -1.0000 0.0000 0.0000
vn -0.7071 0.7071 0.0000
vn 1.0000 0.0000 0.0000
vn 0.0000 0.0000 1.0000
usemtl Wall.001
s 1
f 2/1/1 3/2/1 4/3/1
f 6/4/2 8/5/2 5/6/2
f 7/7/3 9/8/4 8/5/3
f 10/9/5 3/10/5 2/11/5
f 9/12/4 1/13/4 4/3/1
f 1/13/4 2/1/1 4/3/1
f 6/4/2 7/7/2 8/5/2
f 7/7/3 1/13/4 9/8/4
f 2/11/5 6/14/5 10/9/5
f 6/14/5 5/15/5 10/9/5
usemtl Roof.001
f 7/16/6 2/1/6 1/13/6
f 7/16/6 6/17/6 2/1/6
