# Blender v2.93.6 OBJ File: 'handmade_15.blend'
# www.blender.org
mtllib handmade_15.mtl
o Cube
v 2.000000 3.000000 6.000000
v 2.000000 3.000000 0.000000
v 2.000000 -3.000000 -0.000001
v -2.000000 3.000000 6.000000
v -2.000000 3.000000 0.000000
v -2.000000 -3.000000 6.000000
v -2.000000 -3.000000 0.000000
v 2.000000 -3.000000 2.000000
v 0.000000 -3.000000 6.000000
v 2.000000 -1.000000 6.000000
v 0.000000 -3.000000 2.000000
v 2.000000 -1.000000 2.000000
v 0.000000 -3.000000 0.000000
v 2.000000 -1.000000 0.000000
v 1.000000 -2.000000 6.000000
v 1.000000 -2.000000 2.000000
vt 0.625000 0.000000
vt 0.375000 0.250000
vt 0.375000 0.000000
vt 0.625000 0.500000
vt 0.375000 0.750000
vt 0.375000 0.500000
vt 0.375000 0.500000
vt 0.375000 0.660517
vt 0.187922 0.636569
vt 0.455834 0.750000
vt 0.375000 0.868026
vt 0.375000 0.750000
vt 0.205834 0.750000
vt 0.375000 0.704486
vt 0.375000 0.750000
vt 0.446450 0.885646
vt 0.625000 1.000000
vt 0.375000 1.000000
vt 0.125000 0.668311
vt 0.205834 0.750000
vt 0.125000 0.750000
vt 0.192851 0.667785
vt 0.625000 0.250000
vt 0.625000 0.750000
vt 0.125000 0.500000
vt 0.625000 0.873017
vt 0.625000 0.250000
vt 0.498017 0.500000
vt 0.375000 0.410517
vt 0.261650 0.667785
vt 0.435589 0.500000
vt 0.375000 0.454486
vt 0.450712 0.824045
vt 0.375000 0.250000
vn 0.0000 1.0000 0.0000
vn -1.0000 0.0000 0.0000
vn 1.0000 0.0000 0.0000
vn 0.0000 -1.0000 0.0000
vn 0.7071 -0.7071 0.0000
vn 0.0000 0.0000 1.0000
usemtl Wall
s off
f 4/1/1 2/2/1 5/3/1
f 6/4/2 5/5/2 7/6/2
f 1/7/3 10/8/3 12/9/3
f 8/10/4 13/11/4 3/12/4
f 11/13/5 15/14/5 9/15/5
f 11/16/4 6/17/4 7/18/4
f 14/19/3 8/20/3 3/21/3
f 10/8/5 16/22/5 12/9/5
f 4/1/1 1/23/1 2/2/1
f 6/4/2 4/24/2 5/5/2
f 14/19/3 2/25/3 12/9/3
f 2/25/3 1/7/3 12/9/3
f 8/10/4 11/16/4 13/11/4
f 11/13/5 16/22/5 15/14/5
f 7/18/4 13/11/4 11/16/4
f 11/16/4 9/26/4 6/17/4
f 14/19/3 12/9/3 8/20/3
f 10/8/5 15/14/5 16/22/5
usemtl Roof
f 4/27/6 9/28/6 10/29/6
f 12/9/6 16/30/6 8/20/6
f 10/29/6 9/31/6 15/32/6
f 11/33/6 8/20/6 16/30/6
f 10/29/6 1/34/6 4/27/6
f 4/27/6 6/4/6 9/28/6
