# Blender v2.93.6 OBJ File: 'handmade_20.blend'
# www.blender.org
mtllib handmade_20.mtl
o House_Cube.002
v 3.000000 -2.000000 0.000000
v 3.000000 -2.000000 4.000000
v -3.000000 -2.000000 0.000000
v -3.000000 -2.000000 4.000000
v -3.000000 2.000000 4.000000
v -3.000000 2.000000 0.000000
v 3.000000 2.000000 0.000000
v 3.000000 2.000000 4.000000
v -2.000000 -2.000000 3.000000
v -2.000000 -2.000000 1.000000
v 2.000000 -2.000000 1.000000
v 2.000000 -2.000000 3.000000
v 0.000000 -2.000000 3.000000
v 0.000000 -2.000000 1.000000
v -2.000000 -2.000000 2.000000
v 1.931852 -2.517638 1.000000
v 1.931852 -2.517638 3.000000
v 1.732051 -3.000000 1.000000
v 1.732051 -3.000000 3.000000
v 1.414214 -3.414214 1.000000
v 1.414214 -3.414214 3.000000
v 1.000000 -3.732051 1.000000
v 1.000000 -3.732051 3.000000
v 0.517638 -3.931852 1.000000
v 0.517638 -3.931852 3.000000
v -0.000000 -4.000000 1.000000
v -0.000000 -4.000000 3.000000
v -0.517638 -3.931852 1.000000
v -0.517638 -3.931852 3.000000
v -1.000000 -3.732051 1.000000
v -1.000000 -3.732051 3.000000
v -1.414213 -3.414214 1.000000
v -1.414213 -3.414214 3.000000
v -1.732051 -3.000000 1.000000
v -1.732051 -3.000000 3.000000
v -1.931852 -2.517638 1.000000
v -1.931852 -2.517638 3.000000
v -2.205705 2.000000 4.000000
v -2.000000 -2.000000 0.000000
v -2.000000 2.000000 4.000000
v 2.000000 -2.000000 0.000000
v 1.931852 -2.517638 0.000000
v 1.732051 -3.000000 0.000000
v 1.414214 -3.414214 0.000000
v 1.000000 -3.732051 0.000000
v 0.517638 -3.931852 0.000000
v -0.000000 -4.000000 0.000000
v -0.517638 -3.931852 0.000000
v -1.000000 -3.732051 0.000000
v -1.414213 -3.414214 0.000000
v -1.732051 -3.000000 0.000000
v -1.931852 -2.517638 0.000000
vt 0.875000 0.750000
vt 0.625000 0.750000
vt 0.625000 0.533096
vt 0.370000 0.042154
vt 0.457846 0.130000
vt 0.010000 0.250000
vt 0.625000 0.500000
vt 0.875000 0.500000
vt 0.481822 0.187883
vt 0.490000 0.250000
vt 0.018178 0.187883
vt 0.042154 0.130000
vt 0.080294 0.080294
vt 0.130000 0.042154
vt 0.187883 0.018178
vt 0.250000 0.010000
vt 0.312117 0.018178
vt 0.419706 0.080294
vt 0.625000 0.250000
vt 0.573403 0.123983
vt 0.625000 0.000000
vt 0.375000 1.000000
vt 0.375000 0.750000
vt 0.585909 0.505631
vt 0.000000 0.000000
vt 0.375000 0.500000
vt 0.375000 0.250000
vt 0.750000 1.000000
vt 0.708333 0.500000
vt 0.750000 0.500000
vt 0.708333 1.000000
vt 0.666667 0.500000
vt 0.666667 1.000000
vt 0.625000 0.500000
vt 0.625000 1.000000
vt 0.583333 0.500000
vt 0.583333 1.000000
vt 0.541666 0.500000
vt 0.541666 1.000000
vt 0.500000 0.500000
vt 0.500000 1.000000
vt 0.458333 0.500000
vt 0.458333 1.000000
vt 0.416666 0.500000
vt 0.416666 1.000000
vt 0.375000 0.500000
vt 0.375000 1.000000
vt 0.333333 0.500000
vt 0.333333 1.000000
vt 0.291667 0.500000
vt 0.291667 1.000000
vt 0.250000 0.500000
vt 0.333333 0.500000
vt 0.427857 0.207770
vt 0.432343 0.038046
vt 0.430100 0.122908
vt 0.625000 0.500000
vt 0.375000 0.207833
vt 0.375000 0.046631
vt 0.375000 0.000000
vt 0.416666 0.500000
vt 0.708333 0.500000
vt 0.500000 0.500000
vt 0.750000 0.500000
vt 0.583333 0.500000
vt 0.375000 0.500000
vt 0.666667 0.500000
vt 0.458333 0.500000
vt 0.291667 0.500000
vt 0.541666 0.500000
vt 0.497862 0.207253
vt 0.569613 0.206723
vt 0.577226 0.040497
vt 0.625000 1.000000
vt 0.250000 1.000000
vt 0.250000 0.500000
vn 0.0000 0.0000 1.0000
vn 0.0000 -1.0000 0.0000
vn 1.0000 0.0000 0.0000
vn 0.0000 1.0000 0.0000
vn -1.0000 0.0000 0.0000
vn 0.9914 -0.1305 0.0000
vn 0.9239 -0.3827 0.0000
vn 0.7934 -0.6088 0.0000
vn 0.6088 -0.7934 0.0000
vn 0.3827 -0.9239 0.0000
vn 0.1305 -0.9914 0.0000
vn -0.1305 -0.9914 0.0000
vn -0.3827 -0.9239 0.0000
vn -0.6088 -0.7934 0.0000
vn -0.7934 -0.6088 0.0000
vn -0.9239 -0.3827 0.0000
vn -0.9914 -0.1305 0.0000
usemtl Roof
s off
f 2/1/1 8/2/1 38/3/1
f 23/4/1 19/5/1 9/6/1
f 38/3/1 5/7/1 4/8/1
f 4/8/1 2/1/1 38/3/1
f 17/9/1 12/10/1 19/5/1
f 12/10/1 9/6/1 19/5/1
f 9/6/1 37/11/1 35/12/1
f 35/12/1 33/13/1 31/14/1
f 31/14/1 29/15/1 27/16/1
f 27/16/1 25/17/1 23/4/1
f 23/4/1 21/18/1 19/5/1
f 9/6/1 35/12/1 31/14/1
f 31/14/1 27/16/1 9/6/1
f 27/16/1 23/4/1 9/6/1
usemtl Wall
f 4/19/2 13/20/2 2/21/2
f 8/2/3 1/22/3 7/23/3
f 38/3/4 40/24/4 6/25/4
f 4/19/5 6/26/5 3/27/5
f 12/28/6 16/29/6 11/30/6
f 17/31/7 18/32/7 16/29/7
f 19/33/8 20/34/8 18/32/8
f 21/35/9 22/36/9 20/34/9
f 23/37/10 24/38/10 22/36/10
f 25/39/11 26/40/11 24/38/11
f 27/41/12 28/42/12 26/40/12
f 29/43/13 30/44/13 28/42/13
f 31/45/14 32/46/14 30/44/14
f 33/47/15 34/48/15 32/46/15
f 35/49/16 36/50/16 34/48/16
f 37/51/17 10/52/17 36/50/17
f 36/50/16 51/53/16 34/48/16
f 10/54/1 11/55/1 14/56/1
f 22/36/9 44/57/9 20/34/9
f 39/58/2 10/54/2 3/27/2
f 40/24/1 38/3/1 8/2/1
f 41/59/2 1/60/2 11/55/2
f 32/46/14 49/61/14 30/44/14
f 18/32/7 42/62/7 16/29/7
f 28/42/12 47/63/12 26/40/12
f 16/29/6 41/64/6 11/30/6
f 24/38/10 45/65/10 22/36/10
f 34/48/15 50/66/15 32/46/15
f 20/34/8 43/67/8 18/32/8
f 30/44/13 48/68/13 28/42/13
f 10/52/17 52/69/17 36/50/17
f 26/40/11 46/70/11 24/38/11
f 11/55/2 1/60/2 2/21/2
f 4/19/2 3/27/2 15/71/2
f 3/27/2 10/54/2 15/71/2
f 15/71/2 9/72/2 4/19/2
f 12/73/2 11/55/2 2/21/2
f 9/72/2 13/20/2 4/19/2
f 13/20/2 12/73/2 2/21/2
f 8/2/3 2/74/3 1/22/3
f 40/24/4 8/2/4 7/23/4
f 7/23/4 6/25/4 40/24/4
f 6/25/4 5/7/4 38/3/4
f 4/19/5 5/7/5 6/26/5
f 12/28/6 17/31/6 16/29/6
f 17/31/7 19/33/7 18/32/7
f 19/33/8 21/35/8 20/34/8
f 21/35/9 23/37/9 22/36/9
f 23/37/10 25/39/10 24/38/10
f 25/39/11 27/41/11 26/40/11
f 27/41/12 29/43/12 28/42/12
f 29/43/13 31/45/13 30/44/13
f 31/45/14 33/47/14 32/46/14
f 33/47/15 35/49/15 34/48/15
f 35/49/16 37/51/16 36/50/16
f 37/51/17 9/75/17 10/52/17
f 36/50/16 52/69/16 51/53/16
f 22/36/9 45/65/9 44/57/9
f 32/46/14 50/66/14 49/61/14
f 18/32/7 43/67/7 42/62/7
f 28/42/12 48/68/12 47/63/12
f 16/29/6 42/62/6 41/64/6
f 24/38/10 46/70/10 45/65/10
f 34/48/15 51/53/15 50/66/15
f 20/34/8 44/57/8 43/67/8
f 30/44/13 49/61/13 48/68/13
f 10/52/17 39/76/17 52/69/17
f 26/40/11 47/63/11 46/70/11
