# Blender v2.93.6 OBJ File: 'handmade_24.blend'
# www.blender.org
mtllib handmade_24.mtl
o House_Cube.002
v -7.000000 -3.000000 0.000000
v -7.000000 -3.000000 6.000000
v -7.000000 3.000000 0.000000
v -7.000000 3.000000 6.000000
v 7.000000 -3.000000 0.000000
v 7.000000 -3.000000 6.000000
v 7.000000 3.000000 0.000000
v 7.000000 3.000000 6.000000
v -7.000000 3.000000 1.000000
v 7.000000 3.000000 1.000000
v 7.000000 3.000000 4.000000
v -7.000000 3.000000 4.000000
v 6.000000 3.000000 1.000000
v 6.000000 3.000000 4.000000
v 4.000000 3.000000 1.000000
v 4.000000 3.000000 4.000000
v 3.000000 3.000000 1.000000
v 3.000000 3.000000 4.000000
v 1.000000 3.000000 1.000000
v 1.000000 3.000000 4.000000
v -1.000000 3.000000 1.000000
v -1.000000 3.000000 4.000000
v -3.000000 3.000000 1.000000
v -3.000000 3.000000 4.000000
v -4.000000 3.000000 1.000000
v -4.000000 3.000000 4.000000
v -6.000000 3.000000 1.000000
v -6.000000 3.000000 4.000000
v 6.000000 4.000000 1.000000
v 6.000000 4.000000 4.000000
v 4.000000 4.000000 1.000000
v 4.000000 4.000000 4.000000
v 3.000000 5.000000 1.000000
v 3.000000 5.000000 4.000000
v 1.000000 5.000000 1.000000
v 1.000000 5.000000 4.000000
v -1.000000 3.500000 1.000000
v -1.000000 3.500000 4.000000
v -3.000000 3.500000 1.000000
v -3.000000 3.500000 4.000000
v -4.000000 4.500000 1.000000
v -4.000000 4.500000 4.000000
v -6.000000 4.500000 1.000000
v -6.000000 4.500000 4.000000
v 6.000000 3.000000 0.000000
v 4.000000 3.000000 0.000000
v 3.000000 3.000000 0.000000
v 1.000000 3.000000 0.000000
v -1.000000 3.000000 0.000000
v -3.000000 3.000000 0.000000
v -4.000000 3.000000 0.000000
v -6.000000 3.000000 0.000000
v 6.000000 4.000000 0.000000
v 4.000000 4.000000 0.000000
v 3.000000 5.000000 0.000000
v 1.000000 5.000000 0.000000
v -1.000000 3.500000 0.000000
v -3.000000 3.500000 0.000000
v -4.000000 4.500000 0.000000
v -6.000000 4.500000 0.000000
vt 0.875000 0.500000
vt 0.625000 0.750000
vt 0.625000 0.500000
vt 0.561693 0.334715
vt 0.561989 0.291672
vt 0.561989 0.291672
vt 0.562058 0.281674
vt 0.562200 0.261037
vt 0.562200 0.261037
vt 0.560688 0.480683
vt 0.560946 0.443260
vt 0.560946 0.443260
vt 0.561094 0.421681
vt 0.561382 0.379960
vt 0.561382 0.379960
vt 0.875000 0.750000
vt 0.561693 0.334715
vt 0.562058 0.281674
vt 0.560688 0.480683
vt 0.561094 0.421681
vt 0.625000 0.000000
vt 0.625000 0.250000
vt 0.562276 0.250000
vt 0.431148 0.250000
vt 0.375000 0.270083
vt 0.375000 0.250000
vt 0.560556 0.500000
vt 0.375000 0.750000
vt 0.375000 1.000000
vt 0.435547 0.480048
vt 0.435928 0.500000
vt 0.434793 0.440606
vt 0.433544 0.375279
vt 0.433544 0.375279
vt 0.431923 0.290520
vt 0.431336 0.259818
vt 0.435547 0.480048
vt 0.434793 0.440606
vt 0.433544 0.375279
vt 0.434377 0.418850
vt 0.434377 0.418850
vt 0.432708 0.331558
vt 0.432708 0.331558
vt 0.431923 0.290520
vt 0.435547 0.480048
vt 0.431740 0.280917
vt 0.431740 0.280917
vt 0.431336 0.259818
vt 0.431336 0.259818
vt 0.375000 0.500000
vt 0.375000 0.481785
vt 0.375000 0.446400
vt 0.375000 0.429333
vt 0.375000 0.393451
vt 0.375000 0.357237
vt 0.375000 0.322204
vt 0.375000 0.304928
vt 0.434377 0.418850
vt 0.434793 0.440606
vt 0.432708 0.331558
vt 0.431740 0.280917
vt 0.431923 0.290520
vt 0.434793 0.440606
vt 0.431336 0.259818
vt 0.433544 0.375279
vt 0.431923 0.290520
vt 0.375000 0.000000
vt 0.625000 1.000000
vt 0.435547 0.480048
vt 0.434377 0.418850
vt 0.432708 0.331558
vt 0.431740 0.280917
vn 0.0000 0.0000 1.0000
vn -1.0000 0.0000 0.0000
vn 0.0000 1.0000 0.0000
vn 1.0000 0.0000 0.0000
vn 0.0000 -1.0000 0.0000
usemtl Roof
s off
f 4/1/1 6/2/1 8/3/1
f 22/4/1 40/5/1 24/6/1
f 26/7/1 44/8/1 28/9/1
f 14/10/1 32/11/1 16/12/1
f 18/13/1 36/14/1 20/15/1
f 4/1/1 2/16/1 6/2/1
f 22/4/1 38/17/1 40/5/1
f 26/7/1 42/18/1 44/8/1
f 14/10/1 30/19/1 32/11/1
f 18/13/1 34/20/1 36/14/1
usemtl Wall
f 2/21/2 4/22/2 12/23/2
f 9/24/3 52/25/3 3/26/3
f 11/27/4 6/2/4 5/28/4
f 6/2/5 1/29/5 5/28/5
f 13/30/3 11/27/3 10/31/3
f 8/3/3 20/15/3 22/4/3
f 13/30/4 30/19/4 14/10/4
f 15/32/3 18/13/3 16/12/3
f 20/15/2 35/33/2 19/34/2
f 19/34/3 22/4/3 20/15/3
f 23/35/3 26/7/3 24/6/3
f 27/36/3 12/23/3 28/9/3
f 29/37/3 32/11/3 30/19/3
f 16/12/2 31/38/2 15/32/2
f 35/33/2 48/39/2 19/34/2
f 33/40/3 36/14/3 34/20/3
f 17/41/4 34/20/4 18/13/4
f 37/42/3 40/5/3 38/17/3
f 21/43/4 38/17/4 22/4/4
f 24/6/2 39/44/2 23/35/2
f 13/30/4 53/45/4 29/37/4
f 41/46/3 44/8/3 42/18/3
f 25/47/4 42/18/4 26/7/4
f 28/9/2 43/48/2 27/36/2
f 41/46/3 60/49/3 43/48/3
f 13/30/3 7/50/3 45/51/3
f 17/41/3 46/52/3 47/53/3
f 21/43/3 48/54/3 49/55/3
f 25/47/3 50/56/3 51/57/3
f 17/41/4 55/58/4 33/40/4
f 31/38/2 46/59/2 15/32/2
f 21/43/4 57/60/4 37/42/4
f 25/47/4 59/61/4 41/46/4
f 39/44/2 50/62/2 23/35/2
f 29/37/3 54/63/3 31/38/3
f 43/48/2 52/64/2 27/36/2
f 33/40/3 56/65/3 35/33/3
f 37/42/3 58/66/3 39/44/3
f 3/26/2 1/67/2 9/24/2
f 1/67/2 2/21/2 12/23/2
f 9/24/2 1/67/2 12/23/2
f 9/24/3 27/36/3 52/25/3
f 5/28/4 7/50/4 10/31/4
f 11/27/4 8/3/4 6/2/4
f 5/28/4 10/31/4 11/27/4
f 6/2/5 2/68/5 1/29/5
f 13/30/3 14/10/3 11/27/3
f 8/3/3 11/27/3 14/10/3
f 16/12/3 18/13/3 8/3/3
f 18/13/3 20/15/3 8/3/3
f 8/3/3 14/10/3 16/12/3
f 12/23/3 4/22/3 28/9/3
f 4/22/3 8/3/3 22/4/3
f 28/9/3 4/22/3 26/7/3
f 24/6/3 26/7/3 4/22/3
f 24/6/3 4/22/3 22/4/3
f 13/30/4 29/37/4 30/19/4
f 15/32/3 17/41/3 18/13/3
f 20/15/2 36/14/2 35/33/2
f 19/34/3 21/43/3 22/4/3
f 23/35/3 25/47/3 26/7/3
f 27/36/3 9/24/3 12/23/3
f 29/37/3 31/38/3 32/11/3
f 16/12/2 32/11/2 31/38/2
f 35/33/2 56/65/2 48/39/2
f 33/40/3 35/33/3 36/14/3
f 17/41/4 33/40/4 34/20/4
f 37/42/3 39/44/3 40/5/3
f 21/43/4 37/42/4 38/17/4
f 24/6/2 40/5/2 39/44/2
f 13/30/4 45/69/4 53/45/4
f 41/46/3 43/48/3 44/8/3
f 25/47/4 41/46/4 42/18/4
f 28/9/2 44/8/2 43/48/2
f 41/46/3 59/61/3 60/49/3
f 13/30/3 10/31/3 7/50/3
f 17/41/3 15/32/3 46/52/3
f 21/43/3 19/34/3 48/54/3
f 25/47/3 23/35/3 50/56/3
f 17/41/4 47/70/4 55/58/4
f 31/38/2 54/63/2 46/59/2
f 21/43/4 49/71/4 57/60/4
f 25/47/4 51/72/4 59/61/4
f 39/44/2 58/66/2 50/62/2
f 29/37/3 53/45/3 54/63/3
f 43/48/2 60/49/2 52/64/2
f 33/40/3 55/58/3 56/65/3
f 37/42/3 57/60/3 58/66/3
